<svg xmlns="http://www.w3.org/2000/svg"><symbol id="arrow-next" viewBox="0 0 24 24"><path d="M22.7071 12.7071C23.0976 12.3166 23.0976 11.6834 22.7071 11.2929L16.3431 4.92893C15.9526 4.53841 15.3195 4.53841 14.9289 4.92893C14.5384 5.31946 14.5384 5.95262 14.9289 6.34315L20.5858 12L14.9289 17.6569C14.5384 18.0474 14.5384 18.6805 14.9289 19.0711C15.3195 19.4616 15.9526 19.4616 16.3431 19.0711L22.7071 12.7071ZM2 12V13H22V12V11H2V12Z" fill="currentColor"></path></symbol><symbol id="arrow-prev" viewBox="0 0 24 24"><path d="M1.29254 11.3033C0.902209 11.694 0.902526 12.3271 1.29325 12.7175L7.66039 19.0782C8.05111 19.4686 8.68428 19.4683 9.07461 19.0775C9.46493 18.6868 9.46462 18.0537 9.0739 17.6633L3.41421 12.0093L9.06823 6.34962C9.45856 5.9589 9.45825 5.32573 9.06753 4.9354C8.67681 4.54508 8.04364 4.54539 7.65331 4.93611L1.29254 11.3033ZM22 12L21.9995 11L1.9995 11.01L2 12.01L2.0005 13.01L22.0005 13L22 12Z" fill="currentColor"></path></symbol><symbol id="drawing" viewBox="0 0 24 24"><path d="M21.2359 16.953C21.1043 16.8982 20.9528 16.9285 20.852 17.0295L17.0023 20.8916C16.9016 20.9927 16.8715 21.1447 16.926 21.2767C16.9805 21.4088 17.109 21.4949 17.2515 21.4949H21.1011C21.2957 21.4949 21.4534 21.3367 21.4534 21.1415V17.2794C21.4534 17.1365 21.3675 17.0077 21.2359 16.953ZM18.1018 20.7881L20.7488 18.1326V20.7881H18.1018Z" fill="currentColor"></path><path d="M23.7825 11.2884C23.6509 11.2337 23.4994 11.2639 23.3986 11.365L22.3436 12.4234V5.22697C22.3436 5.03176 22.1859 4.87357 21.9914 4.87357H19.2847L20.2673 3.88791C20.2674 3.88777 20.2675 3.88758 20.2677 3.88744L21.2144 2.9377C21.4172 2.73422 21.5289 2.46354 21.5289 2.17574C21.5289 1.88795 21.4172 1.61736 21.2144 1.41378L20.1196 0.315543C19.9168 0.112063 19.647 0 19.3601 0C19.0732 0 18.8035 0.112063 18.6006 0.315543L17.6535 1.26575L16.509 2.41393L14.0573 4.87352H3.12281V1.37739C3.12281 1.18218 2.96508 1.02399 2.77055 1.02399C1.24289 1.02408 0 2.27088 0 3.80354V18.8135C0 18.8396 0.003 18.865 0.00834375 18.8895C0.057 19.5398 0.337453 20.144 0.806156 20.6027C1.30716 21.0929 1.96852 21.3629 2.66845 21.3629H13.4327L11.4054 23.3967C11.3047 23.4978 11.2746 23.6498 11.3291 23.7818C11.3836 23.9139 11.5121 24 11.6545 24H23.6477C23.8423 24 24 23.8418 24 23.6466V11.6149C24 11.472 23.9141 11.3431 23.7825 11.2884ZM19.0989 0.815381C19.2429 0.670823 19.4775 0.670823 19.6215 0.815381L20.7163 1.91367C20.8604 2.05818 20.8604 2.29345 20.7163 2.43801L20.0182 3.13831L18.4008 1.51569L19.0989 0.815381ZM17.9026 2.01548L19.52 3.63806L18.8737 4.2865L17.2563 2.66392L17.9026 2.01548ZM23.2956 15.5859H22.6456C22.4511 15.5859 22.2934 15.7441 22.2934 15.9393C22.2934 16.1345 22.4511 16.2927 22.6456 16.2927H23.2956V17.3576H22.6456C22.4511 17.3576 22.2934 17.5158 22.2934 17.711C22.2934 17.9062 22.4511 18.0644 22.6456 18.0644H23.2956V19.1293H22.6456C22.4511 19.1293 22.2934 19.2875 22.2934 19.4827C22.2934 19.6779 22.4511 19.8361 22.6456 19.8361H23.2956V20.901H22.6456C22.4511 20.901 22.2934 21.0593 22.2934 21.2544C22.2934 21.4496 22.4511 21.6078 22.6456 21.6078H23.2956V23.2933H12.5049L16.0631 19.7238C16.2007 19.5857 16.2007 19.362 16.0631 19.224C16.0473 19.2081 16.0304 19.1944 16.0126 19.1822C15.8754 19.0879 15.6867 19.1018 15.5649 19.224L14.1373 20.6562H2.6685C1.60013 20.6562 0.740062 19.8194 0.706219 18.7495C0.708234 18.6824 0.713437 18.6158 0.721781 18.5499C0.721828 18.5496 0.721875 18.5492 0.721922 18.5488C0.725859 18.5175 0.730594 18.4864 0.735984 18.4555C0.736594 18.4519 0.73725 18.4484 0.737859 18.4449C0.742781 18.4173 0.748313 18.3898 0.754359 18.3625C0.756047 18.3548 0.757828 18.3472 0.759609 18.3396C0.764953 18.3165 0.770719 18.2935 0.776906 18.2706C0.780281 18.2582 0.783797 18.2459 0.787406 18.2336C0.792563 18.2156 0.797906 18.1977 0.803578 18.1799C0.80925 18.1622 0.815297 18.1447 0.821438 18.1271C0.825703 18.1149 0.829922 18.1026 0.834516 18.0904C0.843094 18.0673 0.852187 18.0444 0.861562 18.0217C0.864234 18.0151 0.866859 18.0085 0.869625 18.002C0.881672 17.9737 0.894187 17.9459 0.907406 17.9183C0.907969 17.9171 0.908484 17.9159 0.909047 17.9148C1.18458 17.3427 1.7145 16.9163 2.35045 16.7839C2.35223 16.7836 2.35402 16.7831 2.3558 16.7828C2.38495 16.7768 2.41439 16.7717 2.44402 16.7669C2.44894 16.7661 2.45386 16.7651 2.45888 16.7644C2.48564 16.7603 2.51269 16.7571 2.53973 16.754C2.54733 16.7532 2.55487 16.752 2.56252 16.7513C2.58862 16.7486 2.61497 16.7469 2.64131 16.7452C2.64966 16.7447 2.658 16.7438 2.66634 16.7434C2.70084 16.7417 2.73562 16.7408 2.77055 16.7408C2.96508 16.7408 3.12281 16.5826 3.12281 16.3874V13.825C3.12281 13.6298 2.96508 13.4716 2.77055 13.4716C2.57602 13.4716 2.41828 13.6298 2.41828 13.825V16.0562C1.82344 16.1317 1.2713 16.3979 0.835922 16.8244C0.790125 16.8692 0.746719 16.9159 0.704437 16.9633V3.80354C0.704437 2.78115 1.44628 1.92919 2.41823 1.76093V5.22697V12.4114V12.4115C2.41823 12.6066 2.57597 12.7649 2.7705 12.7649C2.96503 12.7649 3.12277 12.6066 3.12277 12.4115V12.4114V5.58037H13.3528L11.4054 7.53401C11.2678 7.67207 11.2678 7.89578 11.4054 8.0338C11.543 8.17177 11.766 8.17177 11.9035 8.0338L14.4523 5.47686C14.4524 5.47677 14.4524 5.47667 14.4525 5.47663L16.758 3.16366L18.3754 4.78629L18.1856 4.97665C18.1855 4.97679 18.1853 4.97693 18.1852 4.97707L11.0823 12.1029L9.46491 10.4803L10.865 9.07575C11.0025 8.93768 11.0025 8.71398 10.865 8.57596C10.7274 8.43798 10.5044 8.43798 10.3668 8.57596L8.71762 10.2304C8.70881 10.2393 8.70056 10.2486 8.69283 10.2582C8.69025 10.2614 8.68795 10.2648 8.68552 10.2682C8.68055 10.2748 8.67567 10.2815 8.67112 10.2884C8.66855 10.2925 8.6662 10.2966 8.66377 10.3008C8.65987 10.3074 8.65613 10.3141 8.6527 10.3209C8.65045 10.3253 8.64844 10.3298 8.64637 10.3344C8.64323 10.3413 8.64033 10.3484 8.63766 10.3554C8.63672 10.3579 8.6355 10.3603 8.63461 10.3627L7.94831 12.3131L7.48041 13.643C7.47422 13.6607 7.46977 13.6786 7.46644 13.6967H6.29494C6.10041 13.6967 5.94267 13.8549 5.94267 14.0501C5.94267 14.2453 6.10041 14.4035 6.29494 14.4035H16.0503C16.2449 14.4035 16.4025 14.2453 16.4025 14.0501C16.4025 13.8549 16.2449 13.6967 16.0503 13.6967H9.05123L11.1995 12.936C11.2013 12.9353 11.203 12.9344 11.2048 12.9337C11.2131 12.9306 11.2213 12.9272 11.2294 12.9234C11.2327 12.9219 11.2359 12.9205 11.239 12.919C11.2475 12.9147 11.2558 12.9101 11.2639 12.9051C11.2665 12.9035 11.2693 12.902 11.2718 12.9004C11.2803 12.8949 11.2886 12.889 11.2967 12.8827C11.2987 12.8811 11.3008 12.8798 11.3028 12.8782C11.3126 12.8703 11.3222 12.8617 11.3313 12.8526L18.5802 5.58041H21.639V13.1302L16.6002 18.1854C16.4626 18.3234 16.4626 18.5471 16.6002 18.6851C16.6087 18.6937 16.6177 18.7018 16.6269 18.7094C16.6915 18.7622 16.7704 18.7886 16.8493 18.7886C16.9281 18.7886 17.007 18.7622 17.0716 18.7094C17.0808 18.7019 17.0898 18.6937 17.0984 18.6851C17.0985 18.685 17.0984 18.6851 17.0985 18.685L23.2956 12.468V15.5859ZM10.438 12.456L9.42895 12.8134L8.75667 12.1389L9.11288 11.1266L10.438 12.456Z" fill="currentColor"></path></symbol><symbol id="dribbble" viewBox="0 0 24 24"><path d="M12 18C8.69063 18 6 15.3109 6 12.0023C6 8.68909 8.69063 6 12 6C15.3094 6 18 8.68909 18 11.9977C18 15.3062 15.3094 18 12 18ZM17.0578 12.8189C16.8844 12.7626 15.4734 12.3449 13.8656 12.5984C14.5359 14.438 14.8078 15.9398 14.8594 16.2495C16.0125 15.4752 16.8328 14.2456 17.0578 12.8189ZM14.0016 16.7235C13.9266 16.273 13.6266 14.7055 12.9094 12.8377C12.9 12.8424 12.8859 12.8471 12.8766 12.8471C9.98437 13.8561 8.94844 15.86 8.85469 16.0477C9.72188 16.7235 10.8141 17.1271 12 17.1271C12.7078 17.1318 13.3875 16.9863 14.0016 16.7235ZM8.19375 15.4329C8.31094 15.2358 9.71719 12.9081 12.3609 12.0493C12.4266 12.0258 12.4969 12.007 12.5625 11.9883C12.4359 11.6973 12.2953 11.4063 12.1453 11.1201C9.58594 11.885 7.10156 11.8522 6.87656 11.8475C6.87656 11.8991 6.87188 11.9507 6.87188 12.0023C6.87656 13.3211 7.37344 14.5225 8.19375 15.4329ZM6.98438 10.9558C7.21406 10.9605 9.32344 10.9699 11.7234 10.3316C10.875 8.82049 9.95625 7.55338 9.825 7.37036C8.38594 8.04615 7.31719 9.36957 6.98438 10.9558ZM10.8 7.02307C10.9406 7.21079 11.8734 8.4779 12.7125 10.0219C14.5359 9.33672 15.3047 8.30426 15.3984 8.17286C14.4938 7.37036 13.3031 6.88228 12 6.88228C11.5875 6.88228 11.1844 6.93391 10.8 7.02307ZM15.9656 8.76418C15.8578 8.90966 15 10.0125 13.1063 10.7869C13.2234 11.0309 13.3406 11.2796 13.4484 11.5284C13.4859 11.6175 13.5234 11.7067 13.5609 11.7912C15.2672 11.5753 16.9594 11.9226 17.1281 11.9554C17.1141 10.7493 16.6828 9.63707 15.9656 8.76418Z" fill="currentColor"></path></symbol><symbol id="exterior" viewBox="0 0 24 24"><path d="M3 4C3.13257 4.00002 3.25977 4.05274 3.35352 4.14648C3.44721 4.24024 3.5 4.36745 3.5 4.5C3.49996 4.63254 3.44722 4.75979 3.35352 4.85352C3.25978 4.94722 3.13254 4.99998 3 5H2.375V22.75H3C3.13248 22.75 3.25979 22.8019 3.35352 22.8955C3.44724 22.9893 3.5 23.1174 3.5 23.25C3.49984 23.3824 3.44714 23.5099 3.35352 23.6035C3.2598 23.6971 3.13245 23.749 3 23.749H0.75C0.617545 23.749 0.490218 23.6971 0.396484 23.6035C0.302863 23.5099 0.25016 23.3824 0.25 23.25C0.25 23.1174 0.302759 22.9893 0.396484 22.8955C0.490223 22.8019 0.617518 22.75 0.75 22.75H1.375V5H0.75C0.617436 5 0.490241 4.94723 0.396484 4.85352C0.302753 4.75978 0.250037 4.63255 0.25 4.5C0.25 4.36743 0.302758 4.24024 0.396484 4.14648C0.490249 4.05272 0.617398 4 0.75 4H3ZM13.874 3.99902C13.9412 3.99902 14.0085 4.0128 14.0703 4.03906C14.132 4.06534 14.1878 4.10406 14.2344 4.15234L16.5391 6.53516V5.50098C16.5391 5.36847 16.5919 5.2412 16.6855 5.14746C16.7792 5.05379 16.9066 5.00108 17.0391 5.00098H20.6689C20.8014 5.00098 20.9287 5.05383 21.0225 5.14746C21.1162 5.24122 21.1689 5.36838 21.1689 5.50098V11.3174L21.2393 11.3896L23.6094 13.8379C23.6776 13.9085 23.7233 13.9982 23.7412 14.0947C23.7591 14.1912 23.7483 14.2906 23.71 14.3809C23.6716 14.4712 23.6073 14.5484 23.5254 14.6025C23.4435 14.6567 23.3472 14.6856 23.249 14.6855H21.5625V23.249C21.5625 23.3814 21.5105 23.5088 21.417 23.6025C21.3233 23.6962 21.1959 23.7489 21.0635 23.749H6.68555C6.55312 23.7489 6.42568 23.6962 6.33203 23.6025C6.23851 23.5088 6.18555 23.3814 6.18555 23.249V14.6855H4.49902C4.40104 14.6855 4.30538 14.6566 4.22363 14.6025C4.14174 14.5484 4.07745 14.4712 4.03906 14.3809C4.00077 14.2906 3.98994 14.1912 4.00781 14.0947C4.0257 13.9983 4.07056 13.9085 4.13867 13.8379L4.13965 13.8389L13.5146 4.15234C13.5612 4.10403 13.617 4.06535 13.6787 4.03906C13.7404 4.01284 13.807 3.9991 13.874 3.99902ZM13.6953 5.40625L5.67969 13.6855H6.68555C6.81798 13.6855 6.94533 13.7385 7.03906 13.832C7.13277 13.9257 7.18548 14.053 7.18555 14.1855V22.749H20.5635V14.1855C20.5635 14.0531 20.6154 13.9257 20.709 13.832C20.8027 13.7383 20.9309 13.6856 21.0635 13.6855H22.0635L20.3105 11.8496L20.3096 11.8486L20.249 11.7734C20.2143 11.7197 20.1909 11.6595 20.1787 11.5967L20.1689 11.501V6.00098H17.5391V7.77344C17.5392 7.87315 17.5098 7.97101 17.4541 8.05371C17.3984 8.13634 17.3189 8.19996 17.2266 8.2373C17.1343 8.27458 17.0329 8.28433 16.9355 8.26367C16.8381 8.24289 16.7479 8.19281 16.6787 8.12109L14.0537 5.40625L13.875 5.21973L13.6953 5.40625ZM23.249 0.25C23.3815 0.250032 23.5088 0.302865 23.6025 0.396484C23.6963 0.490243 23.749 0.617425 23.749 0.75V3C23.749 3.13255 23.6962 3.25977 23.6025 3.35352C23.5088 3.44711 23.3815 3.49997 23.249 3.5C23.1166 3.4999 22.9892 3.44715 22.8955 3.35352C22.8019 3.25978 22.749 3.1325 22.749 3V2.375H5V3C4.99998 3.13255 4.94722 3.25977 4.85352 3.35352C4.75979 3.44723 4.63254 3.49996 4.5 3.5C4.36745 3.5 4.24024 3.44721 4.14648 3.35352C4.05274 3.25977 4.00002 3.13258 4 3V0.75C4 0.617396 4.05272 0.490249 4.14648 0.396484C4.24024 0.302758 4.36743 0.25 4.5 0.25C4.63255 0.250038 4.75979 0.302754 4.85352 0.396484C4.94723 0.490241 5 0.617436 5 0.75V1.375H22.749V0.75C22.749 0.617495 22.8019 0.490229 22.8955 0.396484C22.9892 0.302849 23.1166 0.250103 23.249 0.25Z" fill="currentColor"></path></symbol><symbol id="interior" viewBox="0 0 24 24"><path d="M4.55 22.0499C4.55 22.2708 4.3709 22.4499 4.15 22.4499H0.4C0.1791 22.4499 0 22.2708 0 22.0499C0 21.829 0.1791 21.65 0.4 21.65H4.15C4.3709 21.65 4.55 21.829 4.55 22.0499ZM9.3 4.39995C10.8439 4.39995 12.1 5.65605 12.1 7.19995V7.89995C12.1 8.12085 11.9209 8.29995 11.7 8.29995H6.9C6.6791 8.29995 6.5 8.12085 6.5 7.89995V7.19995C6.5 5.65605 7.7561 4.39995 9.3 4.39995ZM7.3 7.19995V7.49995H11.3V7.19995C11.3 6.09715 10.4028 5.19995 9.3 5.19995C8.1972 5.19995 7.3 6.09715 7.3 7.19995ZM3.325 20.85C3.5459 20.85 3.7253 20.6708 3.725 20.4494L3.704 4.81565C3.70215 3.42575 4.82635 2.29995 6.21635 2.29995H6.3877C7.1897 2.29995 7.92475 2.66945 8.40435 3.3137C8.53625 3.49085 8.78685 3.5276 8.96405 3.3957C9.14125 3.2638 9.17795 3.0132 9.04605 2.836C8.42325 1.99945 7.42945 1.5 6.3877 1.5H6.21635C4.3839 1.5 2.90155 2.98415 2.904 4.81675L2.925 20.4505C2.9253 20.6712 3.1043 20.85 3.325 20.85ZM22.2 15.4V12.7918C22.2 11.6108 21.2391 10.65 20.0581 10.65H9.14185C7.96085 10.65 7 11.6108 7 12.7918V13.7499C7 13.9708 7.1791 14.15 7.4 14.15C7.6209 14.15 7.8 13.9708 7.8 13.7499V12.7918C7.8 12.0519 8.40195 11.45 9.14185 11.45H14.25V15.95C14.25 16.1709 14.4291 16.3499 14.65 16.3499C14.8709 16.3499 15.05 16.1709 15.05 15.95V11.45H20.0581C20.798 11.45 21.4 12.0519 21.4 12.7918V15.4106C20.5017 15.5074 19.8 16.2698 19.8 17.1934V17.5499C19.8 17.7708 19.9791 17.9499 20.2 17.9499C20.4209 17.9499 20.6 17.7708 20.6 17.5499V17.1934C20.6 16.6456 21.0457 16.2 21.5935 16.2H22.2066C22.7544 16.2 23.2 16.6456 23.2 17.1934V20.6565C23.2 21.2043 22.7544 21.65 22.2066 21.65H20.6C20.6 19.032 20.6019 19.1931 20.5965 19.15C20.627 18.9057 20.4361 18.7 20.2 18.7H11.25C11.0291 18.7 10.85 18.8791 10.85 19.1C10.85 19.3209 11.0291 19.5 11.25 19.5H19.8V22.05C19.8 22.2709 19.9791 22.45 20.2 22.45H22.2066C23.1955 22.45 24 21.6454 24 20.6565V17.1934C24 16.2174 23.2111 15.4 22.2 15.4ZM18.15 21.65C17.7883 21.65 7.6616 21.65 7.0935 21.65C6.5457 21.65 6.1 21.2043 6.1 20.6565V17.1934C6.1 16.6456 6.5457 16.2 7.0935 16.2H7.70655C8.25435 16.2 8.70005 16.6456 8.70005 17.1934V19.4499C8.70005 19.6708 8.87915 19.85 9.10005 19.85C9.32095 19.85 9.50005 19.6708 9.50005 19.4499V17.1934C9.50005 16.2045 8.6955 15.4 7.70655 15.4H7.0935C6.10455 15.4 5.3 16.2045 5.3 17.1934V20.6565C5.3 21.6454 6.10455 22.45 7.0935 22.45H18.15C18.3709 22.45 18.55 22.2709 18.55 22.05C18.55 21.8291 18.3709 21.65 18.15 21.65Z" fill="currentColor"></path></symbol><symbol id="linkedin" viewBox="0 0 24 24"><path d="M17 16.9999V13.3373C17 11.5372 16.6124 10.1621 14.5123 10.1621C13.4998 10.1621 12.8248 10.7121 12.5497 11.2372H12.5247V10.3246H10.5372V16.9999H12.6123V13.6873C12.6123 12.8122 12.7748 11.9747 13.8498 11.9747C14.9124 11.9747 14.9249 12.9622 14.9249 13.7373V16.9874H17V16.9999Z" fill="currentColor"></path><path d="M7.16277 10.3252H9.23787V17.0005H7.16277V10.3252Z" fill="currentColor"></path><path d="M8.20006 7C7.53753 7 7 7.53753 7 8.20006C7 8.86259 7.53753 9.41262 8.20006 9.41262C8.86259 9.41262 9.40012 8.86259 9.40012 8.20006C9.40012 7.53753 8.86259 7 8.20006 7Z" fill="currentColor"></path></symbol><symbol id="tiktok" viewBox="0 0 24 24"><path d="M17.5373 9.00464C16.8514 9.00464 16.2185 8.77741 15.7103 8.39408C15.1275 7.95466 14.7087 7.31007 14.5608 6.56713C14.5242 6.38356 14.5045 6.19413 14.5026 6H12.5433V11.3539L12.5409 14.2865C12.5409 15.0705 12.0304 15.7353 11.3226 15.9691C11.1172 16.0369 10.8954 16.0691 10.6644 16.0564C10.3696 16.0402 10.0933 15.9512 9.85317 15.8076C9.34214 15.5019 8.99567 14.9475 8.98628 14.3132C8.97149 13.3219 9.77289 12.5137 10.7635 12.5137C10.959 12.5137 11.1468 12.5456 11.3226 12.6036V11.1403V10.6142C11.1372 10.5868 10.9485 10.5724 10.7576 10.5724C9.67336 10.5724 8.65929 11.0231 7.93443 11.8351C7.38655 12.4487 7.05792 13.2315 7.00721 14.0524C6.94078 15.1308 7.33538 16.1559 8.10062 16.9122C8.21306 17.0233 8.33113 17.1263 8.4546 17.2214C9.11069 17.7263 9.91279 18 10.7576 18C10.9485 18 11.1372 17.9859 11.3226 17.9585C12.1118 17.8416 12.84 17.4803 13.4146 16.9122C14.1207 16.2144 14.5108 15.2878 14.515 14.3017L14.505 9.92246C14.8418 10.1823 15.2101 10.3973 15.6054 10.5642C16.2202 10.8236 16.872 10.9551 17.5429 10.9548V9.53209V9.00417L17.5373 9.00464Z" fill="currentColor"></path></symbol></svg>