<svg width="24" height="24" viewBox="0 0 24 24" fill="none" xmlns="http://www.w3.org/2000/svg">
<path d="M21.2359 16.953C21.1043 16.8982 20.9528 16.9285 20.852 17.0295L17.0023 20.8916C16.9016 20.9927 16.8715 21.1447 16.926 21.2767C16.9805 21.4088 17.109 21.4949 17.2515 21.4949H21.1011C21.2957 21.4949 21.4534 21.3367 21.4534 21.1415V17.2794C21.4534 17.1365 21.3675 17.0077 21.2359 16.953ZM18.1018 20.7881L20.7488 18.1326V20.7881H18.1018Z" fill="white"/>
<path d="M23.7825 11.2884C23.6509 11.2337 23.4994 11.2639 23.3986 11.365L22.3436 12.4234V5.22697C22.3436 5.03176 22.1859 4.87357 21.9914 4.87357H19.2847L20.2673 3.88791C20.2674 3.88777 20.2675 3.88758 20.2677 3.88744L21.2144 2.9377C21.4172 2.73422 21.5289 2.46354 21.5289 2.17574C21.5289 1.88795 21.4172 1.61736 21.2144 1.41378L20.1196 0.315543C19.9168 0.112063 19.647 0 19.3601 0C19.0732 0 18.8035 0.112063 18.6006 0.315543L17.6535 1.26575L16.509 2.41393L14.0573 4.87352H3.12281V1.37739C3.12281 1.18218 2.96508 1.02399 2.77055 1.02399C1.24289 1.02408 0 2.27088 0 3.80354V18.8135C0 18.8396 0.003 18.865 0.00834375 18.8895C0.057 19.5398 0.337453 20.144 0.806156 20.6027C1.30716 21.0929 1.96852 21.3629 2.66845 21.3629H13.4327L11.4054 23.3967C11.3047 23.4978 11.2746 23.6498 11.3291 23.7818C11.3836 23.9139 11.5121 24 11.6545 24H23.6477C23.8423 24 24 23.8418 24 23.6466V11.6149C24 11.472 23.9141 11.3431 23.7825 11.2884ZM19.0989 0.815381C19.2429 0.670823 19.4775 0.670823 19.6215 0.815381L20.7163 1.91367C20.8604 2.05818 20.8604 2.29345 20.7163 2.43801L20.0182 3.13831L18.4008 1.51569L19.0989 0.815381ZM17.9026 2.01548L19.52 3.63806L18.8737 4.2865L17.2563 2.66392L17.9026 2.01548ZM23.2956 15.5859H22.6456C22.4511 15.5859 22.2934 15.7441 22.2934 15.9393C22.2934 16.1345 22.4511 16.2927 22.6456 16.2927H23.2956V17.3576H22.6456C22.4511 17.3576 22.2934 17.5158 22.2934 17.711C22.2934 17.9062 22.4511 18.0644 22.6456 18.0644H23.2956V19.1293H22.6456C22.4511 19.1293 22.2934 19.2875 22.2934 19.4827C22.2934 19.6779 22.4511 19.8361 22.6456 19.8361H23.2956V20.901H22.6456C22.4511 20.901 22.2934 21.0593 22.2934 21.2544C22.2934 21.4496 22.4511 21.6078 22.6456 21.6078H23.2956V23.2933H12.5049L16.0631 19.7238C16.2007 19.5857 16.2007 19.362 16.0631 19.224C16.0473 19.2081 16.0304 19.1944 16.0126 19.1822C15.8754 19.0879 15.6867 19.1018 15.5649 19.224L14.1373 20.6562H2.6685C1.60013 20.6562 0.740062 19.8194 0.706219 18.7495C0.708234 18.6824 0.713437 18.6158 0.721781 18.5499C0.721828 18.5496 0.721875 18.5492 0.721922 18.5488C0.725859 18.5175 0.730594 18.4864 0.735984 18.4555C0.736594 18.4519 0.73725 18.4484 0.737859 18.4449C0.742781 18.4173 0.748313 18.3898 0.754359 18.3625C0.756047 18.3548 0.757828 18.3472 0.759609 18.3396C0.764953 18.3165 0.770719 18.2935 0.776906 18.2706C0.780281 18.2582 0.783797 18.2459 0.787406 18.2336C0.792563 18.2156 0.797906 18.1977 0.803578 18.1799C0.80925 18.1622 0.815297 18.1447 0.821438 18.1271C0.825703 18.1149 0.829922 18.1026 0.834516 18.0904C0.843094 18.0673 0.852187 18.0444 0.861562 18.0217C0.864234 18.0151 0.866859 18.0085 0.869625 18.002C0.881672 17.9737 0.894187 17.9459 0.907406 17.9183C0.907969 17.9171 0.908484 17.9159 0.909047 17.9148C1.18458 17.3427 1.7145 16.9163 2.35045 16.7839C2.35223 16.7836 2.35402 16.7831 2.3558 16.7828C2.38495 16.7768 2.41439 16.7717 2.44402 16.7669C2.44894 16.7661 2.45386 16.7651 2.45888 16.7644C2.48564 16.7603 2.51269 16.7571 2.53973 16.754C2.54733 16.7532 2.55487 16.752 2.56252 16.7513C2.58862 16.7486 2.61497 16.7469 2.64131 16.7452C2.64966 16.7447 2.658 16.7438 2.66634 16.7434C2.70084 16.7417 2.73562 16.7408 2.77055 16.7408C2.96508 16.7408 3.12281 16.5826 3.12281 16.3874V13.825C3.12281 13.6298 2.96508 13.4716 2.77055 13.4716C2.57602 13.4716 2.41828 13.6298 2.41828 13.825V16.0562C1.82344 16.1317 1.2713 16.3979 0.835922 16.8244C0.790125 16.8692 0.746719 16.9159 0.704437 16.9633V3.80354C0.704437 2.78115 1.44628 1.92919 2.41823 1.76093V5.22697V12.4114V12.4115C2.41823 12.6066 2.57597 12.7649 2.7705 12.7649C2.96503 12.7649 3.12277 12.6066 3.12277 12.4115V12.4114V5.58037H13.3528L11.4054 7.53401C11.2678 7.67207 11.2678 7.89578 11.4054 8.0338C11.543 8.17177 11.766 8.17177 11.9035 8.0338L14.4523 5.47686C14.4524 5.47677 14.4524 5.47667 14.4525 5.47663L16.758 3.16366L18.3754 4.78629L18.1856 4.97665C18.1855 4.97679 18.1853 4.97693 18.1852 4.97707L11.0823 12.1029L9.46491 10.4803L10.865 9.07575C11.0025 8.93768 11.0025 8.71398 10.865 8.57596C10.7274 8.43798 10.5044 8.43798 10.3668 8.57596L8.71762 10.2304C8.70881 10.2393 8.70056 10.2486 8.69283 10.2582C8.69025 10.2614 8.68795 10.2648 8.68552 10.2682C8.68055 10.2748 8.67567 10.2815 8.67112 10.2884C8.66855 10.2925 8.6662 10.2966 8.66377 10.3008C8.65987 10.3074 8.65613 10.3141 8.6527 10.3209C8.65045 10.3253 8.64844 10.3298 8.64637 10.3344C8.64323 10.3413 8.64033 10.3484 8.63766 10.3554C8.63672 10.3579 8.6355 10.3603 8.63461 10.3627L7.94831 12.3131L7.48041 13.643C7.47422 13.6607 7.46977 13.6786 7.46644 13.6967H6.29494C6.10041 13.6967 5.94267 13.8549 5.94267 14.0501C5.94267 14.2453 6.10041 14.4035 6.29494 14.4035H16.0503C16.2449 14.4035 16.4025 14.2453 16.4025 14.0501C16.4025 13.8549 16.2449 13.6967 16.0503 13.6967H9.05123L11.1995 12.936C11.2013 12.9353 11.203 12.9344 11.2048 12.9337C11.2131 12.9306 11.2213 12.9272 11.2294 12.9234C11.2327 12.9219 11.2359 12.9205 11.239 12.919C11.2475 12.9147 11.2558 12.9101 11.2639 12.9051C11.2665 12.9035 11.2693 12.902 11.2718 12.9004C11.2803 12.8949 11.2886 12.889 11.2967 12.8827C11.2987 12.8811 11.3008 12.8798 11.3028 12.8782C11.3126 12.8703 11.3222 12.8617 11.3313 12.8526L18.5802 5.58041H21.639V13.1302L16.6002 18.1854C16.4626 18.3234 16.4626 18.5471 16.6002 18.6851C16.6087 18.6937 16.6177 18.7018 16.6269 18.7094C16.6915 18.7622 16.7704 18.7886 16.8493 18.7886C16.9281 18.7886 17.007 18.7622 17.0716 18.7094C17.0808 18.7019 17.0898 18.6937 17.0984 18.6851C17.0985 18.685 17.0984 18.6851 17.0985 18.685L23.2956 12.468V15.5859ZM10.438 12.456L9.42895 12.8134L8.75667 12.1389L9.11288 11.1266L10.438 12.456Z" fill="white"/>
</svg>
