<svg width="24" height="24" viewBox="0 0 24 24" fill="none" xmlns="http://www.w3.org/2000/svg">
<path d="M3 4C3.13257 4.00002 3.25977 4.05274 3.35352 4.14648C3.44721 4.24024 3.5 4.36745 3.5 4.5C3.49996 4.63254 3.44722 4.75979 3.35352 4.85352C3.25978 4.94722 3.13254 4.99998 3 5H2.375V22.75H3C3.13248 22.75 3.25979 22.8019 3.35352 22.8955C3.44724 22.9893 3.5 23.1174 3.5 23.25C3.49984 23.3824 3.44714 23.5099 3.35352 23.6035C3.2598 23.6971 3.13245 23.749 3 23.749H0.75C0.617545 23.749 0.490218 23.6971 0.396484 23.6035C0.302863 23.5099 0.25016 23.3824 0.25 23.25C0.25 23.1174 0.302759 22.9893 0.396484 22.8955C0.490223 22.8019 0.617518 22.75 0.75 22.75H1.375V5H0.75C0.617436 5 0.490241 4.94723 0.396484 4.85352C0.302753 4.75978 0.250037 4.63255 0.25 4.5C0.25 4.36743 0.302758 4.24024 0.396484 4.14648C0.490249 4.05272 0.617398 4 0.75 4H3ZM13.874 3.99902C13.9412 3.99902 14.0085 4.0128 14.0703 4.03906C14.132 4.06534 14.1878 4.10406 14.2344 4.15234L16.5391 6.53516V5.50098C16.5391 5.36847 16.5919 5.2412 16.6855 5.14746C16.7792 5.05379 16.9066 5.00108 17.0391 5.00098H20.6689C20.8014 5.00098 20.9287 5.05383 21.0225 5.14746C21.1162 5.24122 21.1689 5.36838 21.1689 5.50098V11.3174L21.2393 11.3896L23.6094 13.8379C23.6776 13.9085 23.7233 13.9982 23.7412 14.0947C23.7591 14.1912 23.7483 14.2906 23.71 14.3809C23.6716 14.4712 23.6073 14.5484 23.5254 14.6025C23.4435 14.6567 23.3472 14.6856 23.249 14.6855H21.5625V23.249C21.5625 23.3814 21.5105 23.5088 21.417 23.6025C21.3233 23.6962 21.1959 23.7489 21.0635 23.749H6.68555C6.55312 23.7489 6.42568 23.6962 6.33203 23.6025C6.23851 23.5088 6.18555 23.3814 6.18555 23.249V14.6855H4.49902C4.40104 14.6855 4.30538 14.6566 4.22363 14.6025C4.14174 14.5484 4.07745 14.4712 4.03906 14.3809C4.00077 14.2906 3.98994 14.1912 4.00781 14.0947C4.0257 13.9983 4.07056 13.9085 4.13867 13.8379L4.13965 13.8389L13.5146 4.15234C13.5612 4.10403 13.617 4.06535 13.6787 4.03906C13.7404 4.01284 13.807 3.9991 13.874 3.99902ZM13.6953 5.40625L5.67969 13.6855H6.68555C6.81798 13.6855 6.94533 13.7385 7.03906 13.832C7.13277 13.9257 7.18548 14.053 7.18555 14.1855V22.749H20.5635V14.1855C20.5635 14.0531 20.6154 13.9257 20.709 13.832C20.8027 13.7383 20.9309 13.6856 21.0635 13.6855H22.0635L20.3105 11.8496L20.3096 11.8486L20.249 11.7734C20.2143 11.7197 20.1909 11.6595 20.1787 11.5967L20.1689 11.501V6.00098H17.5391V7.77344C17.5392 7.87315 17.5098 7.97101 17.4541 8.05371C17.3984 8.13634 17.3189 8.19996 17.2266 8.2373C17.1343 8.27458 17.0329 8.28433 16.9355 8.26367C16.8381 8.24289 16.7479 8.19281 16.6787 8.12109L14.0537 5.40625L13.875 5.21973L13.6953 5.40625ZM23.249 0.25C23.3815 0.250032 23.5088 0.302865 23.6025 0.396484C23.6963 0.490243 23.749 0.617425 23.749 0.75V3C23.749 3.13255 23.6962 3.25977 23.6025 3.35352C23.5088 3.44711 23.3815 3.49997 23.249 3.5C23.1166 3.4999 22.9892 3.44715 22.8955 3.35352C22.8019 3.25978 22.749 3.1325 22.749 3V2.375H5V3C4.99998 3.13255 4.94722 3.25977 4.85352 3.35352C4.75979 3.44723 4.63254 3.49996 4.5 3.5C4.36745 3.5 4.24024 3.44721 4.14648 3.35352C4.05274 3.25977 4.00002 3.13258 4 3V0.75C4 0.617396 4.05272 0.490249 4.14648 0.396484C4.24024 0.302758 4.36743 0.25 4.5 0.25C4.63255 0.250038 4.75979 0.302754 4.85352 0.396484C4.94723 0.490241 5 0.617436 5 0.75V1.375H22.749V0.75C22.749 0.617495 22.8019 0.490229 22.8955 0.396484C22.9892 0.302849 23.1166 0.250103 23.249 0.25Z" fill="white"/>
</svg>
