<svg width="24" height="24" viewBox="0 0 24 24" fill="none" xmlns="http://www.w3.org/2000/svg">
<path d="M4.55 22.0499C4.55 22.2708 4.3709 22.4499 4.15 22.4499H0.4C0.1791 22.4499 0 22.2708 0 22.0499C0 21.829 0.1791 21.65 0.4 21.65H4.15C4.3709 21.65 4.55 21.829 4.55 22.0499ZM9.3 4.39995C10.8439 4.39995 12.1 5.65605 12.1 7.19995V7.89995C12.1 8.12085 11.9209 8.29995 11.7 8.29995H6.9C6.6791 8.29995 6.5 8.12085 6.5 7.89995V7.19995C6.5 5.65605 7.7561 4.39995 9.3 4.39995ZM7.3 7.19995V7.49995H11.3V7.19995C11.3 6.09715 10.4028 5.19995 9.3 5.19995C8.1972 5.19995 7.3 6.09715 7.3 7.19995ZM3.325 20.85C3.5459 20.85 3.7253 20.6708 3.725 20.4494L3.704 4.81565C3.70215 3.42575 4.82635 2.29995 6.21635 2.29995H6.3877C7.1897 2.29995 7.92475 2.66945 8.40435 3.3137C8.53625 3.49085 8.78685 3.5276 8.96405 3.3957C9.14125 3.2638 9.17795 3.0132 9.04605 2.836C8.42325 1.99945 7.42945 1.5 6.3877 1.5H6.21635C4.3839 1.5 2.90155 2.98415 2.904 4.81675L2.925 20.4505C2.9253 20.6712 3.1043 20.85 3.325 20.85ZM22.2 15.4V12.7918C22.2 11.6108 21.2391 10.65 20.0581 10.65H9.14185C7.96085 10.65 7 11.6108 7 12.7918V13.7499C7 13.9708 7.1791 14.15 7.4 14.15C7.6209 14.15 7.8 13.9708 7.8 13.7499V12.7918C7.8 12.0519 8.40195 11.45 9.14185 11.45H14.25V15.95C14.25 16.1709 14.4291 16.3499 14.65 16.3499C14.8709 16.3499 15.05 16.1709 15.05 15.95V11.45H20.0581C20.798 11.45 21.4 12.0519 21.4 12.7918V15.4106C20.5017 15.5074 19.8 16.2698 19.8 17.1934V17.5499C19.8 17.7708 19.9791 17.9499 20.2 17.9499C20.4209 17.9499 20.6 17.7708 20.6 17.5499V17.1934C20.6 16.6456 21.0457 16.2 21.5935 16.2H22.2066C22.7544 16.2 23.2 16.6456 23.2 17.1934V20.6565C23.2 21.2043 22.7544 21.65 22.2066 21.65H20.6C20.6 19.032 20.6019 19.1931 20.5965 19.15C20.627 18.9057 20.4361 18.7 20.2 18.7H11.25C11.0291 18.7 10.85 18.8791 10.85 19.1C10.85 19.3209 11.0291 19.5 11.25 19.5H19.8V22.05C19.8 22.2709 19.9791 22.45 20.2 22.45H22.2066C23.1955 22.45 24 21.6454 24 20.6565V17.1934C24 16.2174 23.2111 15.4 22.2 15.4ZM18.15 21.65C17.7883 21.65 7.6616 21.65 7.0935 21.65C6.5457 21.65 6.1 21.2043 6.1 20.6565V17.1934C6.1 16.6456 6.5457 16.2 7.0935 16.2H7.70655C8.25435 16.2 8.70005 16.6456 8.70005 17.1934V19.4499C8.70005 19.6708 8.87915 19.85 9.10005 19.85C9.32095 19.85 9.50005 19.6708 9.50005 19.4499V17.1934C9.50005 16.2045 8.6955 15.4 7.70655 15.4H7.0935C6.10455 15.4 5.3 16.2045 5.3 17.1934V20.6565C5.3 21.6454 6.10455 22.45 7.0935 22.45H18.15C18.3709 22.45 18.55 22.2709 18.55 22.05C18.55 21.8291 18.3709 21.65 18.15 21.65Z" fill="white"/>
</svg>
