<svg width="24" height="24" viewBox="0 0 24 24" fill="none" xmlns="http://www.w3.org/2000/svg">
<path d="M17 16.9999V13.3373C17 11.5372 16.6124 10.1621 14.5123 10.1621C13.4998 10.1621 12.8248 10.7121 12.5497 11.2372H12.5247V10.3246H10.5372V16.9999H12.6123V13.6873C12.6123 12.8122 12.7748 11.9747 13.8498 11.9747C14.9124 11.9747 14.9249 12.9622 14.9249 13.7373V16.9874H17V16.9999Z" fill="white"/>
<path d="M7.16277 10.3252H9.23787V17.0005H7.16277V10.3252Z" fill="white"/>
<path d="M8.20006 7C7.53753 7 7 7.53753 7 8.20006C7 8.86259 7.53753 9.41262 8.20006 9.41262C8.86259 9.41262 9.40012 8.86259 9.40012 8.20006C9.40012 7.53753 8.86259 7 8.20006 7Z" fill="white"/>
</svg>
