<svg width="388" height="671" viewBox="0 0 388 671" fill="none" xmlns="http://www.w3.org/2000/svg">
<g clip-path="url(#clip0_113_580)">
<path opacity="0.7" d="M-21.514 668.221L-31.738 670.417H-28.5479L-21.3743 668.875L-21.0447 670.417H-20.3575L-20.7206 668.74L76.2121 647.918L81.0447 670.417H81.7263L76.8657 647.773L173.798 626.956L183.134 670.417H183.821L174.458 626.839L271.385 605.994L285.223 670.417H285.911L272.044 605.854L368.971 585.032L387.313 670.417H388L348.596 486.976L348.529 486.652L-123.006 587.932V588.613L-42.3419 571.294L-21.514 668.221ZM348.009 487.446L368.831 584.378L271.899 605.201L251.082 508.268L348.009 487.446ZM250.428 508.396L271.245 605.329L174.312 626.146L153.496 529.213L250.428 508.396ZM152.842 529.353L173.659 626.28L76.726 647.119L55.9036 550.186L152.842 529.353ZM55.25 550.298L76.0724 647.259L-20.8603 668.081L-41.6827 571.149L55.25 550.298Z" fill="#4D4D4D"/>
<path opacity="0.7" d="M45.9254 508.005L-63.1867 -0.0111407H-63.8739L-59.6725 19.543L-123 33.1471V33.8343L-59.5329 20.2023L-38.7161 117.129L-123 135.236V135.918L-38.5708 117.789L-17.754 214.716L-114.687 235.538L-123 196.826V200L-115.34 235.661L-123 237.337V237.991L-115.178 236.315L-94.356 333.247L-122.978 339.393V340.074L-94.2163 333.929L-73.3995 430.862L-122.978 441.51V442.192L-73.2543 431.515L-52.4375 528.448L-123 543.594V544.281L45.6014 508.078L45.9254 508.005ZM-114.547 236.203L-17.6144 215.386L3.20798 312.296L-93.7247 333.113L-114.547 236.203ZM-93.585 333.795L3.34766 312.972L24.17 409.905L-72.7626 430.739L-93.585 333.795ZM-51.8062 528.314L-72.6229 431.381L24.3097 410.559L45.1265 507.491L-51.8062 528.314Z" fill="#4D4D4D"/>
</g>
<defs>
<clipPath id="clip0_113_580">
<rect width="511" height="670.417" fill="white" transform="matrix(-1 0 0 -1 388 670.417)"/>
</clipPath>
</defs>
</svg>
