<svg width="447" height="600" viewBox="0 0 447 600" fill="none" xmlns="http://www.w3.org/2000/svg">
<g clip-path="url(#clip0_113_29)">
<path opacity="0.7" d="M409.514 -68.8043L419.738 -71H416.548L409.374 -69.458L409.045 -71H408.358L408.721 -69.3239L311.788 -48.5016L306.955 -71H306.274L311.134 -48.3563L214.202 -27.5395L204.866 -71H204.179L213.542 -27.4222L116.615 -6.57749L102.777 -71H102.089L115.956 -6.43782L19.029 14.3845L0.687177 -71H0L39.4044 112.44L39.4714 112.764L511.006 11.4849V10.8033L430.342 28.1227L409.514 -68.8043ZM39.991 111.971L19.1686 15.0382L116.101 -5.78415L136.918 91.1485L39.991 111.971ZM137.572 91.02L116.755 -5.91265L213.688 -26.7294L234.504 70.2032L137.572 91.02ZM235.158 70.0636L214.341 -26.8635L311.274 -47.7026L332.096 49.23L235.158 70.0636ZM332.75 49.1183L311.928 -47.8423L408.86 -68.6647L429.683 28.268L332.75 49.1183Z" fill="#4D4D4D"/>
<path opacity="0.7" d="M342.075 91.4111L451.187 599.428H451.874L447.673 579.874L511 566.269V565.582L447.533 579.214L426.716 482.287L511 464.18V463.498L426.571 481.628L405.754 384.701L502.687 363.878L511 402.59V399.417L503.34 363.756L511 362.079V361.426L503.178 363.102L482.356 266.169L510.978 260.024V259.342L482.216 265.488L461.4 168.555L510.978 157.906V157.225L461.254 167.901L440.437 70.9686L511 55.8226V55.1354L342.399 91.3385L342.075 91.4111ZM502.547 363.214L405.614 384.03L384.792 287.12L481.725 266.303L502.547 363.214ZM481.585 265.622L384.652 286.444L363.83 189.511L460.763 168.678L481.585 265.622ZM439.806 71.1027L460.623 168.035L363.69 188.858L342.874 91.9251L439.806 71.1027Z" fill="#4D4D4D"/>
</g>
<defs>
<clipPath id="clip0_113_29">
<rect width="511" height="670.417" fill="white" transform="translate(0 -71)"/>
</clipPath>
</defs>
</svg>
