<svg width="170" height="38" viewBox="0 0 170 38" fill="none" xmlns="http://www.w3.org/2000/svg">
<path d="M22.5 5.83173L9.19531 13.9186V32.1667H22.5V38.0007H11.249L0 30.5104V5.83173H22.5Z" fill="white"/>
<path d="M33.7489 0L44.9998 7.49023V32.167H35.8045V13.9189L22.4998 5.83203V0H33.7489Z" fill="white"/>
<path d="M55.5756 27.8329V10.9573H58.3993V25.1844H65.8511V27.8329H55.5756Z" fill="white"/>
<path d="M68.0702 13.2543V10.6644H70.8939V13.2543H68.0702ZM68.0702 27.8329V15.1762H70.8939V27.8329H68.0702Z" fill="white"/>
<path d="M83.1559 27.8329V21.7389C83.1559 21.3405 83.1285 20.8991 83.0739 20.4147C83.0192 19.9303 82.8903 19.4654 82.6872 19.0201C82.4919 18.567 82.1951 18.1959 81.7968 17.9068C81.4062 17.6177 80.8751 17.4732 80.2033 17.4732C79.844 17.4732 79.4886 17.5318 79.1371 17.649C78.7856 17.7662 78.4654 17.9693 78.1763 18.2584C77.8951 18.5396 77.6686 18.9303 77.4968 19.4303C77.3249 19.9225 77.239 20.5553 77.239 21.3288L75.5635 20.6139C75.5635 19.5357 75.7705 18.5591 76.1845 17.6841C76.6063 16.8091 77.2234 16.1138 78.0357 15.5981C78.8481 15.0747 79.8479 14.8129 81.0352 14.8129C81.9725 14.8129 82.7458 14.9692 83.3551 15.2817C83.9643 15.5942 84.4486 15.9927 84.8079 16.477C85.1672 16.9614 85.4328 17.4771 85.6046 18.024C85.7765 18.5709 85.8858 19.0904 85.9327 19.5826C85.9874 20.067 86.0147 20.4615 86.0147 20.7662V27.8329H83.1559ZM74.3802 27.8329V15.1762H76.8992V19.1021H77.239V27.8329H74.3802Z" fill="white"/>
<path d="M94.6191 28.1844C93.3381 28.1844 92.2133 27.9071 91.2447 27.3524C90.2761 26.7977 89.5185 26.0281 88.9717 25.0437C88.4327 24.0593 88.1633 22.9265 88.1633 21.6452C88.1633 20.2623 88.4288 19.0631 88.96 18.0474C89.4911 17.0239 90.2293 16.2309 91.1744 15.6684C92.1196 15.1059 93.2131 14.8247 94.4551 14.8247C95.7673 14.8247 96.8804 15.1333 97.7943 15.7505C98.716 16.3599 99.3995 17.2232 99.8447 18.3404C100.29 19.4576 100.458 20.7741 100.348 22.2897H97.5482V21.2584C97.5404 19.8834 97.2983 18.8795 96.8218 18.2466C96.3453 17.6138 95.5955 17.2974 94.5722 17.2974C93.4162 17.2974 92.557 17.6568 91.9946 18.3755C91.4322 19.0865 91.151 20.1295 91.151 21.5045C91.151 22.7858 91.4322 23.7781 91.9946 24.4812C92.557 25.1844 93.3771 25.5359 94.4551 25.5359C95.1502 25.5359 95.7478 25.3836 96.2477 25.0789C96.7554 24.7664 97.146 24.3171 97.4193 23.7312L100.208 24.575C99.7236 25.7156 98.9737 26.6024 97.9583 27.2352C96.9507 27.868 95.8376 28.1844 94.6191 28.1844ZM90.2605 22.2897V20.1569H98.9659V22.2897H90.2605Z" fill="white"/>
<path d="M106.272 28.1844C105.358 28.1844 104.585 28.0126 103.952 27.6688C103.32 27.3172 102.839 26.8524 102.511 26.2742C102.191 25.6961 102.031 25.0593 102.031 24.364C102.031 23.7546 102.132 23.2077 102.336 22.7233C102.539 22.2311 102.851 21.8092 103.273 21.4577C103.695 21.0983 104.241 20.8053 104.913 20.5787C105.421 20.4147 106.015 20.2662 106.694 20.1334C107.381 20.0006 108.124 19.8795 108.92 19.7701C109.725 19.6529 110.564 19.5279 111.439 19.3951L110.432 19.9693C110.44 19.0943 110.244 18.4498 109.846 18.0357C109.448 17.6216 108.776 17.4146 107.831 17.4146C107.26 17.4146 106.71 17.5474 106.179 17.813C105.647 18.0787 105.276 18.5357 105.066 19.1842L102.488 18.3755C102.8 17.3052 103.394 16.4458 104.269 15.7973C105.151 15.1489 106.339 14.8247 107.831 14.8247C108.955 14.8247 109.944 15.0083 110.795 15.3755C111.654 15.7427 112.291 16.3442 112.705 17.1802C112.931 17.6255 113.068 18.0826 113.115 18.5513C113.162 19.0123 113.185 19.5162 113.185 20.0631V27.8329H110.713V25.0906L111.123 25.5359C110.553 26.45 109.885 27.1219 109.119 27.5516C108.362 27.9735 107.413 28.1844 106.272 28.1844ZM106.835 25.9344C107.475 25.9344 108.022 25.8211 108.475 25.5945C108.928 25.3679 109.287 25.0906 109.553 24.7625C109.826 24.4343 110.01 24.1257 110.104 23.8367C110.252 23.4773 110.334 23.0671 110.35 22.6061C110.373 22.1374 110.385 21.7585 110.385 21.4694L111.252 21.7272C110.4 21.86 109.67 21.9772 109.061 22.0788C108.452 22.1804 107.928 22.278 107.491 22.3718C107.053 22.4577 106.667 22.5554 106.331 22.6647C106.003 22.7819 105.726 22.9187 105.499 23.0749C105.273 23.2312 105.097 23.4109 104.972 23.614C104.855 23.8171 104.796 24.0554 104.796 24.3289C104.796 24.6414 104.874 24.9187 105.03 25.1609C105.187 25.3953 105.413 25.5828 105.71 25.7234C106.015 25.8641 106.389 25.9344 106.835 25.9344Z" fill="white"/>
<path d="M116.235 27.8329V10.9573H122.926C124.066 10.9573 124.999 11.1878 125.726 11.6488C126.46 12.1019 127.003 12.684 127.354 13.3949C127.714 14.1059 127.893 14.8403 127.893 15.5981C127.893 16.5278 127.671 17.3169 127.226 17.9654C126.788 18.6138 126.191 19.0513 125.433 19.2779V18.692C126.495 18.9342 127.3 19.4381 127.847 20.2037C128.401 20.9694 128.678 21.8405 128.678 22.8171C128.678 23.8171 128.487 24.6921 128.104 25.4422C127.722 26.1922 127.151 26.7781 126.394 27.2C125.644 27.6219 124.714 27.8329 123.605 27.8329H116.235ZM119.094 25.1726H123.254C123.746 25.1726 124.187 25.075 124.578 24.8797C124.968 24.6765 125.273 24.3953 125.492 24.0359C125.718 23.6687 125.831 23.2351 125.831 22.7351C125.831 22.2819 125.734 21.8757 125.538 21.5163C125.343 21.1569 125.058 20.8717 124.683 20.6608C124.308 20.442 123.859 20.3326 123.336 20.3326H119.094V25.1726ZM119.094 17.6958H122.89C123.297 17.6958 123.66 17.6177 123.98 17.4615C124.3 17.3052 124.554 17.0747 124.742 16.77C124.929 16.4653 125.023 16.0903 125.023 15.645C125.023 15.059 124.835 14.5707 124.46 14.1801C124.086 13.7895 123.562 13.5941 122.89 13.5941H119.094V17.6958Z" fill="white"/>
<path d="M135.764 28.1962C134.826 28.1962 134.053 28.0399 133.444 27.7274C132.835 27.4149 132.35 27.0164 131.991 26.532C131.632 26.0477 131.366 25.532 131.194 24.9851C131.022 24.4382 130.909 23.9226 130.854 23.4382C130.808 22.946 130.784 22.5476 130.784 22.2429V15.1762H133.643V21.2702C133.643 21.6608 133.67 22.1022 133.725 22.5944C133.78 23.0788 133.905 23.5476 134.1 24.0007C134.303 24.446 134.6 24.8132 134.99 25.1023C135.389 25.3914 135.924 25.5359 136.596 25.5359C136.955 25.5359 137.31 25.4773 137.662 25.3601C138.013 25.2429 138.33 25.0437 138.611 24.7625C138.9 24.4734 139.13 24.0788 139.302 23.5788C139.474 23.0788 139.56 22.446 139.56 21.6803L141.235 22.3952C141.235 23.4734 141.024 24.45 140.603 25.325C140.189 26.2 139.575 26.8992 138.763 27.4227C137.951 27.9383 136.951 28.1962 135.764 28.1962ZM139.9 27.8329V23.907H139.56V15.1762H142.395V27.8329H139.9Z" fill="white"/>
<path d="M145.921 13.2543V10.6644H148.745V13.2543H145.921ZM145.921 27.8329V15.1762H148.745V27.8329H145.921Z" fill="white"/>
<path d="M152.489 27.8329V10.6058H155.313V27.8329H152.489Z" fill="white"/>
<path d="M163.896 28.1844C162.732 28.1844 161.716 27.8915 160.849 27.3055C159.982 26.7196 159.311 25.9227 158.834 24.9148C158.358 23.907 158.119 22.7702 158.119 21.5045C158.119 20.2233 158.358 19.0826 158.834 18.0826C159.318 17.0747 160.002 16.2817 160.885 15.7036C161.767 15.1176 162.806 14.8247 164.001 14.8247C165.204 14.8247 166.212 15.1176 167.024 15.7036C167.844 16.2817 168.465 17.0747 168.887 18.0826C169.309 19.0904 169.52 20.2311 169.52 21.5045C169.52 22.7624 169.309 23.8992 168.887 24.9148C168.465 25.9227 167.836 26.7196 167.001 27.3055C166.165 27.8915 165.13 28.1844 163.896 28.1844ZM164.329 25.6531C165.087 25.6531 165.696 25.4812 166.157 25.1375C166.626 24.7859 166.965 24.2976 167.176 23.6726C167.395 23.0476 167.504 22.3249 167.504 21.5045C167.504 20.6764 167.395 19.9537 167.176 19.3365C166.965 18.7115 166.633 18.2271 166.18 17.8833C165.727 17.5318 165.142 17.356 164.423 17.356C163.665 17.356 163.04 17.5435 162.548 17.9185C162.056 18.2857 161.693 18.7857 161.459 19.4185C161.224 20.0436 161.107 20.7389 161.107 21.5045C161.107 22.278 161.22 22.9812 161.447 23.614C161.681 24.239 162.037 24.7351 162.513 25.1023C162.99 25.4695 163.595 25.6531 164.329 25.6531ZM167.504 27.8329V18.9498H167.153V10.9573H170V27.8329H167.504Z" fill="white"/>
</svg>
