<svg width="846" height="368" viewBox="0 0 846 368" fill="none" xmlns="http://www.w3.org/2000/svg">
<path d="M25.8103 321.451H22.6465V358.362H25.8103V321.451Z" fill="black" stroke="white" stroke-opacity="0.3" stroke-miterlimit="10"/>
<path d="M49.1682 300.214C49.1682 299.065 48.9419 297.927 48.5022 296.865C48.0625 295.804 47.4181 294.84 46.6057 294.027C45.7933 293.215 44.8288 292.57 43.7673 292.131C42.7059 291.691 41.5682 291.465 40.4193 291.465C39.3375 291.465 38.2653 291.668 37.2584 292.063C35.0129 290.095 32.3146 288.714 29.4048 288.044C26.495 287.374 23.4646 287.436 20.5846 288.225C19.9522 287.561 19.1352 287.102 18.2391 286.907C17.3431 286.712 16.4092 286.791 15.5582 287.132C14.7072 287.474 13.9783 288.063 13.4656 288.823C12.9529 289.583 12.6801 290.48 12.6824 291.397C12.6908 291.778 12.7439 292.157 12.8404 292.526C12.3776 292.966 11.926 293.429 11.5083 293.914C10.7384 293.362 9.81427 293.066 8.86671 293.068C8.26482 293.068 7.66882 293.186 7.11275 293.416C6.55668 293.647 6.05142 293.984 5.62582 294.41C5.20022 294.836 4.86262 295.341 4.63229 295.897C4.40195 296.453 4.2834 297.049 4.2834 297.651C4.28537 298.196 4.38873 298.736 4.5882 299.243C3.14558 299.996 1.98236 301.191 1.26932 302.654C0.556286 304.117 0.331002 305.77 0.626545 307.37C0.922089 308.97 1.72289 310.433 2.91137 311.545C4.09986 312.657 5.61341 313.358 7.22981 313.546C7.18117 313.799 7.15473 314.056 7.15079 314.313C7.15079 315.53 7.63331 316.697 8.49252 317.558C9.35173 318.42 10.5175 318.905 11.7341 318.908C12.0373 318.906 12.3397 318.876 12.6372 318.818C15.7025 321.821 19.7328 323.641 24.0128 323.956C28.2927 324.27 32.5456 323.057 36.0166 320.534C36.8032 321.139 37.7673 321.468 38.7598 321.471C39.6998 321.505 40.6271 321.245 41.4123 320.727C42.1975 320.209 42.8013 319.459 43.1395 318.581C43.4777 317.704 43.5333 316.742 43.2986 315.831C43.0639 314.92 42.5506 314.106 41.8304 313.501C41.8981 313.365 41.9771 313.23 42.0336 313.083C42.5241 313.253 43.0384 313.345 43.5576 313.354C44.4642 313.362 45.3545 313.112 46.1244 312.633C46.8942 312.155 47.5118 311.466 47.905 310.649C48.2981 309.832 48.4505 308.92 48.3443 308.02C48.2382 307.119 47.8778 306.268 47.3055 305.564C48.5081 304.04 49.1641 302.155 49.1682 300.214Z" fill="black" stroke="white" stroke-opacity="0.3" stroke-miterlimit="10"/>
<path d="M777.823 354.92H738.357V146.605L777.823 168.573V354.92Z" fill="black" stroke="white" stroke-opacity="0.3" stroke-miterlimit="10"/>
<path d="M554.516 359.774H582.761V151.459L554.516 173.427V359.774Z" fill="black" stroke="white" stroke-opacity="0.3" stroke-miterlimit="10"/>
<path d="M415.325 357.584H443.547V173.574L415.325 192.989V357.584Z" fill="black" stroke="white" stroke-opacity="0.3" stroke-miterlimit="10"/>
<path d="M201.928 124.241H135.489V358.362H201.928V124.241Z" fill="black" stroke="white" stroke-opacity="0.3" stroke-miterlimit="10"/>
<path d="M201.671 141.649V136.106H171.891V141.649H201.671Z" fill="black" stroke="white" stroke-opacity="0.3" stroke-miterlimit="10"/>
<path d="M201.671 151.03V145.487H171.891V151.03H201.671Z" fill="black" stroke="white" stroke-opacity="0.3" stroke-miterlimit="10"/>
<path d="M201.671 160.411V154.868H171.891V160.411H201.671Z" fill="black" stroke="white" stroke-opacity="0.3" stroke-miterlimit="10"/>
<path d="M165.23 141.638V136.095H135.45V141.638H165.23Z" fill="black" stroke="white" stroke-opacity="0.3" stroke-miterlimit="10"/>
<path d="M165.219 151.03V145.487H135.438V151.03H165.219Z" fill="black" stroke="white" stroke-opacity="0.3" stroke-miterlimit="10"/>
<path d="M165.23 160.411V154.868H135.45V160.411H165.23Z" fill="black" stroke="white" stroke-opacity="0.3" stroke-miterlimit="10"/>
<path d="M201.671 172.434V166.891H171.891V172.434H201.671Z" fill="black" stroke="white" stroke-opacity="0.3" stroke-miterlimit="10"/>
<path d="M201.671 181.826V176.283H171.891V181.826H201.671Z" fill="black" stroke="white" stroke-opacity="0.3" stroke-miterlimit="10"/>
<path d="M201.671 191.207V185.665H171.891V191.207H201.671Z" fill="black" stroke="white" stroke-opacity="0.3" stroke-miterlimit="10"/>
<path d="M165.219 172.434V166.891H135.438V172.434H165.219Z" fill="black" stroke="white" stroke-opacity="0.3" stroke-miterlimit="10"/>
<path d="M165.23 181.815V176.272H135.45V181.815H165.23Z" fill="black" stroke="white" stroke-opacity="0.3" stroke-miterlimit="10"/>
<path d="M165.219 191.196V185.653H135.438V191.196H165.219Z" fill="black" stroke="white" stroke-opacity="0.3" stroke-miterlimit="10"/>
<path d="M201.671 203.23V197.688H171.891V203.23H201.671Z" fill="black" stroke="white" stroke-opacity="0.3" stroke-miterlimit="10"/>
<path d="M201.671 212.611V207.068H171.891V212.611H201.671Z" fill="black" stroke="white" stroke-opacity="0.3" stroke-miterlimit="10"/>
<path d="M201.671 221.993V216.45H171.891V221.993H201.671Z" fill="black" stroke="white" stroke-opacity="0.3" stroke-miterlimit="10"/>
<path d="M165.23 203.219V197.676H135.45V203.219H165.23Z" fill="black" stroke="white" stroke-opacity="0.3" stroke-miterlimit="10"/>
<path d="M165.219 212.611V207.068H135.438V212.611H165.219Z" fill="black" stroke="white" stroke-opacity="0.3" stroke-miterlimit="10"/>
<path d="M165.23 221.993V216.45H135.45V221.993H165.23Z" fill="black" stroke="white" stroke-opacity="0.3" stroke-miterlimit="10"/>
<path d="M201.671 234.015V228.472H171.891V234.015H201.671Z" fill="black" stroke="white" stroke-opacity="0.3" stroke-miterlimit="10"/>
<path d="M201.671 243.408V237.865H171.891V243.408H201.671Z" fill="black" stroke="white" stroke-opacity="0.3" stroke-miterlimit="10"/>
<path d="M201.671 252.788V247.246H171.891V252.788H201.671Z" fill="black" stroke="white" stroke-opacity="0.3" stroke-miterlimit="10"/>
<path d="M165.219 234.015V228.472H135.438V234.015H165.219Z" fill="black" stroke="white" stroke-opacity="0.3" stroke-miterlimit="10"/>
<path d="M165.23 243.396V237.853H135.45V243.396H165.23Z" fill="black" stroke="white" stroke-opacity="0.3" stroke-miterlimit="10"/>
<path d="M165.219 252.788V247.246H135.438V252.788H165.219Z" fill="black" stroke="white" stroke-opacity="0.3" stroke-miterlimit="10"/>
<path d="M201.671 264.811V259.269H171.891V264.811H201.671Z" fill="black" stroke="white" stroke-opacity="0.3" stroke-miterlimit="10"/>
<path d="M201.671 274.192V268.649H171.891V274.192H201.671Z" fill="black" stroke="white" stroke-opacity="0.3" stroke-miterlimit="10"/>
<path d="M201.671 283.574V278.031H171.891V283.574H201.671Z" fill="black" stroke="white" stroke-opacity="0.3" stroke-miterlimit="10"/>
<path d="M165.23 264.8V259.257H135.45V264.8H165.23Z" fill="black" stroke="white" stroke-opacity="0.3" stroke-miterlimit="10"/>
<path d="M165.219 274.192V268.649H135.438V274.192H165.219Z" fill="black" stroke="white" stroke-opacity="0.3" stroke-miterlimit="10"/>
<path d="M165.219 283.574V278.031H135.438V283.574H165.219Z" fill="black" stroke="white" stroke-opacity="0.3" stroke-miterlimit="10"/>
<path d="M201.671 295.596V290.053H171.891V295.596H201.671Z" fill="black" stroke="white" stroke-opacity="0.3" stroke-miterlimit="10"/>
<path d="M201.671 304.989V299.446H171.891V304.989H201.671Z" fill="black" stroke="white" stroke-opacity="0.3" stroke-miterlimit="10"/>
<path d="M201.659 314.37V308.827H171.879V314.37H201.659Z" fill="black" stroke="white" stroke-opacity="0.3" stroke-miterlimit="10"/>
<path d="M165.219 295.596V290.053H135.438V295.596H165.219Z" fill="black" stroke="white" stroke-opacity="0.3" stroke-miterlimit="10"/>
<path d="M165.23 304.977V299.434H135.45V304.977H165.23Z" fill="black" stroke="white" stroke-opacity="0.3" stroke-miterlimit="10"/>
<path d="M165.219 314.37V308.827H135.438V314.37H165.219Z" fill="black" stroke="white" stroke-opacity="0.3" stroke-miterlimit="10"/>
<path d="M183.868 81.6035V124.242" stroke="white" stroke-opacity="0.3" stroke-miterlimit="10"/>
<path d="M186.78 98.2656V123.259" stroke="white" stroke-opacity="0.3" stroke-miterlimit="10"/>
<path d="M480.292 250.373H456.1V282.23H480.292V250.373Z" fill="black" stroke="white" stroke-opacity="0.3" stroke-miterlimit="10"/>
<path d="M559.326 290.087H447.859V360.202H559.326V290.087Z" fill="black" stroke="white" stroke-opacity="0.3" stroke-miterlimit="10"/>
<path d="M559.698 360.575H447.475V289.714H559.698V360.575ZM448.231 359.819H558.953V290.459H448.231V359.819Z" fill="black" stroke="white" stroke-opacity="0.3" stroke-miterlimit="10"/>
<path d="M564.722 281.598H442.44V290.55H564.722V281.598Z" fill="black" stroke="white" stroke-opacity="0.3" stroke-miterlimit="10"/>
<path d="M565.105 290.922H442.056V281.225H565.105V290.922ZM442.813 290.177H564.338V281.97H442.813V290.177Z" fill="black" stroke="white" stroke-opacity="0.3" stroke-miterlimit="10"/>
<path d="M564.722 273.086H442.44V282.038H564.722V273.086Z" fill="black" stroke="white" stroke-opacity="0.3" stroke-miterlimit="10"/>
<path d="M565.105 282.411H442.056V272.714H565.105V282.411ZM442.813 281.666H564.338V273.459H442.813V281.666Z" fill="black" stroke="white" stroke-opacity="0.3" stroke-miterlimit="10"/>
<path d="M544.651 305.462H505.851V359.819H544.651V305.462Z" fill="black" stroke="white" stroke-opacity="0.3" stroke-miterlimit="10"/>
<path d="M476.195 305.462H461.587V319.156H476.195V305.462Z" fill="black" stroke="white" stroke-opacity="0.3" stroke-miterlimit="10"/>
<path d="M494.9 305.462H480.292V319.156H494.9V305.462Z" fill="black" stroke="white" stroke-opacity="0.3" stroke-miterlimit="10"/>
<path d="M620.219 67.458H582.965V357.583H620.219V67.458Z" fill="black" stroke="white" stroke-opacity="0.3" stroke-miterlimit="10"/>
<path d="M594.988 79.9326H585.629V89.2911H594.988V79.9326Z" fill="white" fill-opacity="0.5"/>
<path d="M608.964 79.9326H599.605V89.2911H608.964V79.9326Z" fill="white" fill-opacity="0.5"/>
<path d="M594.988 95.7368H585.629V105.095H594.988V95.7368Z" fill="white" fill-opacity="0.5"/>
<path d="M608.964 95.7368H599.605V105.095H608.964V95.7368Z" fill="white" fill-opacity="0.5"/>
<path d="M594.988 111.542H585.629V120.9H594.988V111.542Z" fill="white" fill-opacity="0.5"/>
<path d="M608.964 111.542H599.605V120.9H608.964V111.542Z" fill="white" fill-opacity="0.5"/>
<path d="M594.988 127.346H585.629V136.705H594.988V127.346Z" fill="white" fill-opacity="0.5"/>
<path d="M608.964 127.346H599.605V136.705H608.964V127.346Z" fill="white" fill-opacity="0.5"/>
<path d="M594.988 143.15H585.629V152.509H594.988V143.15Z" fill="white" fill-opacity="0.5"/>
<path d="M608.964 143.15H599.605V152.509H608.964V143.15Z" fill="white" fill-opacity="0.5"/>
<path d="M594.988 158.955H585.629V168.314H594.988V158.955Z" fill="white" fill-opacity="0.5"/>
<path d="M608.964 158.955H599.605V168.314H608.964V158.955Z" fill="white" fill-opacity="0.5"/>
<path d="M594.988 174.76H585.629V184.118H594.988V174.76Z" fill="white" fill-opacity="0.5"/>
<path d="M608.964 174.76H599.605V184.118H608.964V174.76Z" fill="white" fill-opacity="0.5"/>
<path d="M594.988 190.564H585.629V199.922H594.988V190.564Z" fill="white" fill-opacity="0.5"/>
<path d="M608.964 190.564H599.605V199.922H608.964V190.564Z" fill="white" fill-opacity="0.5"/>
<path d="M594.988 206.368H585.629V215.727H594.988V206.368Z" fill="white" fill-opacity="0.5"/>
<path d="M608.964 206.368H599.605V215.727H608.964V206.368Z" fill="white" fill-opacity="0.5"/>
<path d="M594.988 222.173H585.629V231.531H594.988V222.173Z" fill="white" fill-opacity="0.5"/>
<path d="M608.964 222.173H599.605V231.531H608.964V222.173Z" fill="white" fill-opacity="0.5"/>
<path d="M594.988 237.978H585.629V247.336H594.988V237.978Z" fill="white" fill-opacity="0.5"/>
<path d="M608.964 237.978H599.605V247.336H608.964V237.978Z" fill="white" fill-opacity="0.5"/>
<path d="M594.988 253.782H585.629V263.14H594.988V253.782Z" fill="white" fill-opacity="0.5"/>
<path d="M608.964 253.782H599.605V263.14H608.964V253.782Z" fill="white" fill-opacity="0.5"/>
<path d="M594.988 269.586H585.629V278.945H594.988V269.586Z" fill="white" fill-opacity="0.5"/>
<path d="M608.964 269.586H599.605V278.945H608.964V269.586Z" fill="white" fill-opacity="0.5"/>
<path d="M594.988 285.391H585.629V294.75H594.988V285.391Z" fill="white" fill-opacity="0.5"/>
<path d="M608.964 285.391H599.605V294.75H608.964V285.391Z" fill="white" fill-opacity="0.5"/>
<path d="M594.988 301.195H585.629V310.554H594.988V301.195Z" fill="white" fill-opacity="0.5"/>
<path d="M608.964 301.195H599.605V310.554H608.964V301.195Z" fill="white" fill-opacity="0.5"/>
<path d="M594.988 317H585.629V326.359H594.988V317Z" fill="white" fill-opacity="0.5"/>
<path d="M608.964 317H599.605V326.359H608.964V317Z" fill="white" fill-opacity="0.5"/>
<path d="M365.089 360.97H298.484V51.6538L365.089 84.2795V360.97Z" fill="black" stroke="white" stroke-opacity="0.3" stroke-miterlimit="10"/>
<path d="M196.884 360.97H264.617V70.8447L196.884 101.447V360.97Z" fill="black" stroke="white" stroke-opacity="0.3" stroke-miterlimit="10"/>
<path d="M248.813 360.97H316.547V0.853516L248.813 38.8448V360.97Z" fill="black" stroke="white" stroke-opacity="0.3" stroke-miterlimit="10"/>
<path d="M272.079 70.8677H262.924V106.484H272.079V70.8677Z" fill="black" stroke="white" stroke-opacity="0.3" stroke-miterlimit="10"/>
<path d="M287.602 70.8677H278.447V106.484H287.602V70.8677Z" fill="black" stroke="white" stroke-opacity="0.3" stroke-miterlimit="10"/>
<path d="M303.124 70.8677H293.969V106.484H303.124V70.8677Z" fill="black" stroke="white" stroke-opacity="0.3" stroke-miterlimit="10"/>
<path d="M272.079 128.746H262.924V164.362H272.079V128.746Z" fill="black" stroke="white" stroke-opacity="0.3" stroke-miterlimit="10"/>
<path d="M287.602 128.746H278.447V164.362H287.602V128.746Z" fill="black" stroke="white" stroke-opacity="0.3" stroke-miterlimit="10"/>
<path d="M303.124 128.746H293.969V164.362H303.124V128.746Z" fill="black" stroke="white" stroke-opacity="0.3" stroke-miterlimit="10"/>
<path d="M272.079 186.613H262.924V222.229H272.079V186.613Z" fill="black" stroke="white" stroke-opacity="0.3" stroke-miterlimit="10"/>
<path d="M287.602 186.613H278.447V222.229H287.602V186.613Z" fill="black" stroke="white" stroke-opacity="0.3" stroke-miterlimit="10"/>
<path d="M303.124 186.613H293.969V222.229H303.124V186.613Z" fill="black" stroke="white" stroke-opacity="0.3" stroke-miterlimit="10"/>
<path d="M272.079 244.491H262.924V280.108H272.079V244.491Z" fill="black" stroke="white" stroke-opacity="0.3" stroke-miterlimit="10"/>
<path d="M222.058 109.961H212.903V145.578H222.058V109.961Z" fill="black" stroke="white" stroke-opacity="0.3" stroke-miterlimit="10"/>
<path d="M222.058 167.839H212.903V203.456H222.058V167.839Z" fill="black" stroke="white" stroke-opacity="0.3" stroke-miterlimit="10"/>
<path d="M222.058 225.707H212.903V261.323H222.058V225.707Z" fill="black" stroke="white" stroke-opacity="0.3" stroke-miterlimit="10"/>
<path d="M222.058 283.584H212.903V319.201H222.058V283.584Z" fill="black" stroke="white" stroke-opacity="0.3" stroke-miterlimit="10"/>
<path d="M349.002 100.851H339.847V136.468H349.002V100.851Z" fill="black" stroke="white" stroke-opacity="0.3" stroke-miterlimit="10"/>
<path d="M349.002 158.718H339.847V194.334H349.002V158.718Z" fill="black" stroke="white" stroke-opacity="0.3" stroke-miterlimit="10"/>
<path d="M349.002 216.596H339.847V252.213H349.002V216.596Z" fill="black" stroke="white" stroke-opacity="0.3" stroke-miterlimit="10"/>
<path d="M349.002 274.475H339.847V310.091H349.002V274.475Z" fill="black" stroke="white" stroke-opacity="0.3" stroke-miterlimit="10"/>
<path d="M287.602 244.491H278.447V280.108H287.602V244.491Z" fill="black" stroke="white" stroke-opacity="0.3" stroke-miterlimit="10"/>
<path d="M303.124 244.491H293.969V280.108H303.124V244.491Z" fill="black" stroke="white" stroke-opacity="0.3" stroke-miterlimit="10"/>
<path d="M608.794 287.265H595.1V313.41H608.794V287.265Z" fill="black" stroke="white" stroke-opacity="0.3" stroke-miterlimit="10"/>
<path d="M667.542 318.118H592.279V360.643H667.542V318.118Z" fill="black" stroke="white" stroke-opacity="0.3" stroke-miterlimit="10"/>
<path d="M629.915 287.265L652.956 303.035L675.996 318.795H629.915H583.822L606.863 303.035L629.915 287.265Z" fill="black" stroke="white" stroke-opacity="0.3" stroke-miterlimit="10"/>
<path d="M656.682 324.891H651.139V346.43H656.682V324.891Z" fill="black" stroke="white" stroke-opacity="0.3" stroke-miterlimit="10"/>
<path d="M641.961 324.891H599.379V346.43H641.961V324.891Z" fill="black" stroke="white" stroke-opacity="0.3" stroke-miterlimit="10"/>
<path d="M423.486 267.159H403.539V293.429H423.486V267.159Z" fill="black" stroke="white" stroke-opacity="0.3" stroke-miterlimit="10"/>
<path d="M488.635 299.908H396.732V357.719H488.635V299.908Z" fill="black" stroke="white" stroke-opacity="0.3" stroke-miterlimit="10"/>
<path d="M488.779 358.362H395.974V299.305H488.779V358.362ZM396.642 357.735H488.156V299.932H396.642V357.735Z" fill="black" stroke="white" stroke-opacity="0.3" stroke-miterlimit="10"/>
<path d="M493.094 292.909H392.273V300.292H493.094V292.909Z" fill="black" stroke="white" stroke-opacity="0.3" stroke-miterlimit="10"/>
<path d="M493.41 300.597H391.967V292.593H493.41V300.597ZM392.588 299.987H492.789V293.214H392.588V299.987Z" fill="black" stroke="white" stroke-opacity="0.3" stroke-miterlimit="10"/>
<path d="M493.094 285.888H392.273V293.271H493.094V285.888Z" fill="black" stroke="white" stroke-opacity="0.3" stroke-miterlimit="10"/>
<path d="M493.41 293.587H391.967V285.538H493.41V293.587ZM392.588 292.966H492.789V286.192H392.588V292.966Z" fill="black" stroke="white" stroke-opacity="0.3" stroke-miterlimit="10"/>
<path d="M476.533 312.586H444.552V357.403H476.533V312.586Z" fill="black" stroke="white" stroke-opacity="0.3" stroke-miterlimit="10"/>
<path d="M420.099 312.586H408.054V323.875H420.099V312.586Z" fill="black" stroke="white" stroke-opacity="0.3" stroke-miterlimit="10"/>
<path d="M435.532 312.586H423.486V323.875H435.532V312.586Z" fill="black" stroke="white" stroke-opacity="0.3" stroke-miterlimit="10"/>
<path d="M92.303 257.18V355.653H154.234V257.18H92.303Z" fill="black"/>
<path d="M154.471 358.362H92.25V257.121H154.471V358.362ZM92.8676 357.739H153.865V257.755H92.8676V357.739Z" fill="white" fill-opacity="0.5"/>
<path d="M98.8845 338.833V348.869H147.687V338.833H98.8845Z" fill="white" fill-opacity="0.5"/>
<path d="M98.8727 323.852V333.888H147.675V323.852H98.8727Z" fill="white" fill-opacity="0.5"/>
<path d="M98.8845 308.883V318.919H147.687V308.883H98.8845Z" fill="white" fill-opacity="0.5"/>
<path d="M98.8727 293.903V303.938H147.675V293.903H98.8727Z" fill="white" fill-opacity="0.5"/>
<path d="M98.8845 278.933V288.969H147.687V278.933H98.8845Z" fill="white" fill-opacity="0.5"/>
<path d="M98.8727 263.953V273.989H147.675V263.953H98.8727Z" fill="white" fill-opacity="0.5"/>
<path d="M157.892 253.951H88.6681V257.27H157.892V253.951Z" fill="black"/>
<path d="M158.197 257.586H88.3524V253.646H158.197V257.586ZM88.9733 256.965H157.576V254.256H88.9733V256.965Z" fill="white" fill-opacity="0.5"/>
<path d="M84.6495 252.867V357.087" stroke="white" stroke-opacity="0.3" stroke-miterlimit="10"/>
<path d="M83.9718 253.42H93.3642" stroke="white" stroke-opacity="0.3" stroke-miterlimit="10"/>
<path d="M83.9718 256.209H93.3642" stroke="white" stroke-opacity="0.3" stroke-miterlimit="10"/>
<path d="M83.9718 258.986H93.3642" stroke="white" stroke-opacity="0.3" stroke-miterlimit="10"/>
<path d="M83.9718 261.774H93.3642" stroke="white" stroke-opacity="0.3" stroke-miterlimit="10"/>
<path d="M83.9718 264.552H93.3642" stroke="white" stroke-opacity="0.3" stroke-miterlimit="10"/>
<path d="M83.9718 267.34H93.3642" stroke="white" stroke-opacity="0.3" stroke-miterlimit="10"/>
<path d="M83.9718 270.117H93.3642" stroke="white" stroke-opacity="0.3" stroke-miterlimit="10"/>
<path d="M83.9718 272.905H93.3642" stroke="white" stroke-opacity="0.3" stroke-miterlimit="10"/>
<path d="M83.9718 275.694H93.3642" stroke="white" stroke-opacity="0.3" stroke-miterlimit="10"/>
<path d="M83.9718 278.471H93.3642" stroke="white" stroke-opacity="0.3" stroke-miterlimit="10"/>
<path d="M83.9718 281.259H93.3642" stroke="white" stroke-opacity="0.3" stroke-miterlimit="10"/>
<path d="M83.9718 284.037H93.3642" stroke="white" stroke-opacity="0.3" stroke-miterlimit="10"/>
<path d="M83.9718 286.825H93.3642" stroke="white" stroke-opacity="0.3" stroke-miterlimit="10"/>
<path d="M83.9718 289.613H93.3642" stroke="white" stroke-opacity="0.3" stroke-miterlimit="10"/>
<path d="M83.9718 292.39H93.3642" stroke="white" stroke-opacity="0.3" stroke-miterlimit="10"/>
<path d="M83.9718 295.178H93.3642" stroke="white" stroke-opacity="0.3" stroke-miterlimit="10"/>
<path d="M83.9718 297.955H93.3642" stroke="white" stroke-opacity="0.3" stroke-miterlimit="10"/>
<path d="M83.9718 300.744H93.3642" stroke="white" stroke-opacity="0.3" stroke-miterlimit="10"/>
<path d="M83.9718 303.532H93.3642" stroke="white" stroke-opacity="0.3" stroke-miterlimit="10"/>
<path d="M83.9718 306.31H93.3642" stroke="white" stroke-opacity="0.3" stroke-miterlimit="10"/>
<path d="M83.9718 309.098H93.3642" stroke="white" stroke-opacity="0.3" stroke-miterlimit="10"/>
<path d="M83.9718 311.875H93.3642" stroke="white" stroke-opacity="0.3" stroke-miterlimit="10"/>
<path d="M83.9718 314.663H93.3642" stroke="white" stroke-opacity="0.3" stroke-miterlimit="10"/>
<path d="M83.9718 317.451H93.3642" stroke="white" stroke-opacity="0.3" stroke-miterlimit="10"/>
<path d="M83.9718 320.229H93.3642" stroke="white" stroke-opacity="0.3" stroke-miterlimit="10"/>
<path d="M83.9718 323.017H93.3642" stroke="white" stroke-opacity="0.3" stroke-miterlimit="10"/>
<path d="M83.9718 325.794H93.3642" stroke="white" stroke-opacity="0.3" stroke-miterlimit="10"/>
<path d="M83.9718 328.582H93.3642" stroke="white" stroke-opacity="0.3" stroke-miterlimit="10"/>
<path d="M83.9718 331.359H93.3642" stroke="white" stroke-opacity="0.3" stroke-miterlimit="10"/>
<path d="M83.9718 334.147H93.3642" stroke="white" stroke-opacity="0.3" stroke-miterlimit="10"/>
<path d="M83.9718 336.936H93.3642" stroke="white" stroke-opacity="0.3" stroke-miterlimit="10"/>
<path d="M83.9718 339.713H93.3642" stroke="white" stroke-opacity="0.3" stroke-miterlimit="10"/>
<path d="M83.9718 342.501H93.3642" stroke="white" stroke-opacity="0.3" stroke-miterlimit="10"/>
<path d="M83.9718 345.279H93.3642" stroke="white" stroke-opacity="0.3" stroke-miterlimit="10"/>
<path d="M83.9718 348.067H93.3642" stroke="white" stroke-opacity="0.3" stroke-miterlimit="10"/>
<path d="M83.9718 350.855H93.3642" stroke="white" stroke-opacity="0.3" stroke-miterlimit="10"/>
<path d="M83.9718 353.632H93.3642" stroke="white" stroke-opacity="0.3" stroke-miterlimit="10"/>
<path d="M83.9718 356.421H93.3642" stroke="white" stroke-opacity="0.3" stroke-miterlimit="10"/>
<path d="M666.244 220.976V362.72" stroke="white" stroke-opacity="0.3" stroke-miterlimit="10"/>
<path d="M665.454 221.732H676.426" stroke="white" stroke-opacity="0.3" stroke-miterlimit="10"/>
<path d="M665.454 225.514H676.426" stroke="white" stroke-opacity="0.3" stroke-miterlimit="10"/>
<path d="M665.454 229.296H676.426" stroke="white" stroke-opacity="0.3" stroke-miterlimit="10"/>
<path d="M665.454 233.089H676.426" stroke="white" stroke-opacity="0.3" stroke-miterlimit="10"/>
<path d="M665.454 236.871H676.426" stroke="white" stroke-opacity="0.3" stroke-miterlimit="10"/>
<path d="M665.454 240.653H676.426" stroke="white" stroke-opacity="0.3" stroke-miterlimit="10"/>
<path d="M665.454 244.446H676.426" stroke="white" stroke-opacity="0.3" stroke-miterlimit="10"/>
<path d="M665.454 248.228H676.426" stroke="white" stroke-opacity="0.3" stroke-miterlimit="10"/>
<path d="M665.454 252.021H676.426" stroke="white" stroke-opacity="0.3" stroke-miterlimit="10"/>
<path d="M665.454 255.803H676.426" stroke="white" stroke-opacity="0.3" stroke-miterlimit="10"/>
<path d="M665.454 259.584H676.426" stroke="white" stroke-opacity="0.3" stroke-miterlimit="10"/>
<path d="M665.454 263.377H676.426" stroke="white" stroke-opacity="0.3" stroke-miterlimit="10"/>
<path d="M665.454 267.159H676.426" stroke="white" stroke-opacity="0.3" stroke-miterlimit="10"/>
<path d="M665.454 270.953H676.426" stroke="white" stroke-opacity="0.3" stroke-miterlimit="10"/>
<path d="M665.454 274.734H676.426" stroke="white" stroke-opacity="0.3" stroke-miterlimit="10"/>
<path d="M665.454 278.516H676.426" stroke="white" stroke-opacity="0.3" stroke-miterlimit="10"/>
<path d="M665.454 282.309H676.426" stroke="white" stroke-opacity="0.3" stroke-miterlimit="10"/>
<path d="M665.454 286.091H676.426" stroke="white" stroke-opacity="0.3" stroke-miterlimit="10"/>
<path d="M665.454 289.873H676.426" stroke="white" stroke-opacity="0.3" stroke-miterlimit="10"/>
<path d="M665.454 293.666H676.426" stroke="white" stroke-opacity="0.3" stroke-miterlimit="10"/>
<path d="M665.454 297.448H676.426" stroke="white" stroke-opacity="0.3" stroke-miterlimit="10"/>
<path d="M665.454 301.241H676.426" stroke="white" stroke-opacity="0.3" stroke-miterlimit="10"/>
<path d="M665.454 305.022H676.426" stroke="white" stroke-opacity="0.3" stroke-miterlimit="10"/>
<path d="M665.454 308.804H676.426" stroke="white" stroke-opacity="0.3" stroke-miterlimit="10"/>
<path d="M665.454 312.597H676.426" stroke="white" stroke-opacity="0.3" stroke-miterlimit="10"/>
<path d="M665.454 316.379H676.426" stroke="white" stroke-opacity="0.3" stroke-miterlimit="10"/>
<path d="M665.454 320.161H676.426" stroke="white" stroke-opacity="0.3" stroke-miterlimit="10"/>
<path d="M665.454 323.954H676.426" stroke="white" stroke-opacity="0.3" stroke-miterlimit="10"/>
<path d="M665.454 327.736H676.426" stroke="white" stroke-opacity="0.3" stroke-miterlimit="10"/>
<path d="M665.454 331.529H676.426" stroke="white" stroke-opacity="0.3" stroke-miterlimit="10"/>
<path d="M665.454 335.311H676.426" stroke="white" stroke-opacity="0.3" stroke-miterlimit="10"/>
<path d="M665.454 339.093H676.426" stroke="white" stroke-opacity="0.3" stroke-miterlimit="10"/>
<path d="M665.454 342.885H676.426" stroke="white" stroke-opacity="0.3" stroke-miterlimit="10"/>
<path d="M665.454 346.667H676.426" stroke="white" stroke-opacity="0.3" stroke-miterlimit="10"/>
<path d="M665.454 350.46H676.426" stroke="white" stroke-opacity="0.3" stroke-miterlimit="10"/>
<path d="M665.454 354.242H676.426" stroke="white" stroke-opacity="0.3" stroke-miterlimit="10"/>
<path d="M665.454 358.024H676.426" stroke="white" stroke-opacity="0.3" stroke-miterlimit="10"/>
<path d="M665.454 361.817H676.426" stroke="white" stroke-opacity="0.3" stroke-miterlimit="10"/>
<path d="M742.139 51.6538H678.921V220.988H742.139V51.6538Z" fill="black" stroke="white" stroke-opacity="0.3" stroke-miterlimit="10"/>
<path d="M749.387 220.468H672.046V305.305H749.387V220.468Z" fill="black" stroke="white" stroke-opacity="0.3" stroke-miterlimit="10"/>
<path d="M757.728 305.305H663.692V360.666H757.728V305.305Z" fill="black" stroke="white" stroke-opacity="0.3" stroke-miterlimit="10"/>
<path d="M697.389 226.88H688.099V232.807H697.389V226.88Z" fill="white" fill-opacity="0.5"/>
<path d="M697.389 236.611H688.099V242.538H697.389V236.611Z" fill="white" fill-opacity="0.5"/>
<path d="M697.389 246.342H688.099V252.269H697.389V246.342Z" fill="white" fill-opacity="0.5"/>
<path d="M697.389 256.062H688.099V261.989H697.389V256.062Z" fill="white" fill-opacity="0.5"/>
<path d="M697.389 265.793H688.099V271.72H697.389V265.793Z" fill="white" fill-opacity="0.5"/>
<path d="M697.389 285.255H688.099V291.182H697.389V285.255Z" fill="white" fill-opacity="0.5"/>
<path d="M697.389 294.986H688.099V300.913H697.389V294.986Z" fill="white" fill-opacity="0.5"/>
<path d="M709.367 226.88H700.077V232.807H709.367V226.88Z" fill="white" fill-opacity="0.5"/>
<path d="M709.367 236.611H700.077V242.538H709.367V236.611Z" fill="white" fill-opacity="0.5"/>
<path d="M709.367 246.342H700.077V252.269H709.367V246.342Z" fill="white" fill-opacity="0.5"/>
<path d="M709.367 256.062H700.077V261.989H709.367V256.062Z" fill="white" fill-opacity="0.5"/>
<path d="M709.367 265.793H700.077V271.72H709.367V265.793Z" fill="white" fill-opacity="0.5"/>
<path d="M709.367 275.524H700.077V281.451H709.367V275.524Z" fill="white" fill-opacity="0.5"/>
<path d="M709.367 285.255H700.077V291.182H709.367V285.255Z" fill="white" fill-opacity="0.5"/>
<path d="M709.367 294.986H700.077V300.913H709.367V294.986Z" fill="white" fill-opacity="0.5"/>
<path d="M721.345 226.88H712.054V232.807H721.345V226.88Z" fill="white" fill-opacity="0.5"/>
<path d="M721.345 236.611H712.054V242.538H721.345V236.611Z" fill="white" fill-opacity="0.5"/>
<path d="M721.345 246.342H712.054V252.269H721.345V246.342Z" fill="white" fill-opacity="0.5"/>
<path d="M721.345 265.793H712.054V271.72H721.345V265.793Z" fill="white" fill-opacity="0.5"/>
<path d="M721.345 275.524H712.054V281.451H721.345V275.524Z" fill="white" fill-opacity="0.5"/>
<path d="M721.345 294.986H712.054V300.913H721.345V294.986Z" fill="white" fill-opacity="0.5"/>
<path d="M733.322 226.88H724.031V232.807H733.322V226.88Z" fill="white" fill-opacity="0.5"/>
<path d="M733.322 236.611H724.031V242.538H733.322V236.611Z" fill="white" fill-opacity="0.5"/>
<path d="M733.322 246.342H724.031V252.269H733.322V246.342Z" fill="white" fill-opacity="0.5"/>
<path d="M733.322 256.062H724.031V261.989H733.322V256.062Z" fill="white" fill-opacity="0.5"/>
<path d="M733.322 265.793H724.031V271.72H733.322V265.793Z" fill="white" fill-opacity="0.5"/>
<path d="M733.322 285.255H724.031V291.182H733.322V285.255Z" fill="white" fill-opacity="0.5"/>
<path d="M733.322 294.986H724.031V300.913H733.322V294.986Z" fill="white" fill-opacity="0.5"/>
<path d="M703.384 54.792H694.093V60.7187H703.384V54.792Z" fill="white" fill-opacity="0.5"/>
<path d="M703.384 64.5229H694.093V70.4496H703.384V64.5229Z" fill="white" fill-opacity="0.5"/>
<path d="M703.384 74.2432H694.093V80.1699H703.384V74.2432Z" fill="white" fill-opacity="0.5"/>
<path d="M703.384 83.9741H694.093V89.9008H703.384V83.9741Z" fill="white" fill-opacity="0.5"/>
<path d="M703.384 93.7051H694.093V99.6318H703.384V93.7051Z" fill="white" fill-opacity="0.5"/>
<path d="M703.384 103.436H694.093V109.363H703.384V103.436Z" fill="white" fill-opacity="0.5"/>
<path d="M703.384 113.167H694.093V119.094H703.384V113.167Z" fill="white" fill-opacity="0.5"/>
<path d="M703.384 122.887H694.093V128.813H703.384V122.887Z" fill="white" fill-opacity="0.5"/>
<path d="M703.384 132.618H694.093V138.544H703.384V132.618Z" fill="white" fill-opacity="0.5"/>
<path d="M703.384 142.349H694.093V148.276H703.384V142.349Z" fill="white" fill-opacity="0.5"/>
<path d="M703.384 152.08H694.093V158.007H703.384V152.08Z" fill="white" fill-opacity="0.5"/>
<path d="M703.384 161.811H694.093V167.738H703.384V161.811Z" fill="white" fill-opacity="0.5"/>
<path d="M703.384 171.531H694.093V177.457H703.384V171.531Z" fill="white" fill-opacity="0.5"/>
<path d="M703.384 181.262H694.093V187.188H703.384V181.262Z" fill="white" fill-opacity="0.5"/>
<path d="M703.384 190.993H694.093V196.919H703.384V190.993Z" fill="white" fill-opacity="0.5"/>
<path d="M703.384 200.724H694.093V206.65H703.384V200.724Z" fill="white" fill-opacity="0.5"/>
<path d="M703.384 210.455H694.093V216.381H703.384V210.455Z" fill="white" fill-opacity="0.5"/>
<path d="M715.361 54.792H706.071V60.7187H715.361V54.792Z" fill="white" fill-opacity="0.5"/>
<path d="M715.361 64.5229H706.071V70.4496H715.361V64.5229Z" fill="white" fill-opacity="0.5"/>
<path d="M715.361 74.2432H706.071V80.1699H715.361V74.2432Z" fill="white" fill-opacity="0.5"/>
<path d="M715.361 93.7051H706.071V99.6318H715.361V93.7051Z" fill="white" fill-opacity="0.5"/>
<path d="M715.361 113.167H706.071V119.094H715.361V113.167Z" fill="white" fill-opacity="0.5"/>
<path d="M715.361 122.887H706.071V128.813H715.361V122.887Z" fill="white" fill-opacity="0.5"/>
<path d="M715.361 142.349H706.071V148.276H715.361V142.349Z" fill="white" fill-opacity="0.5"/>
<path d="M715.361 152.08H706.071V158.007H715.361V152.08Z" fill="white" fill-opacity="0.5"/>
<path d="M715.361 161.811H706.071V167.738H715.361V161.811Z" fill="white" fill-opacity="0.5"/>
<path d="M715.361 181.262H706.071V187.188H715.361V181.262Z" fill="white" fill-opacity="0.5"/>
<path d="M715.361 190.993H706.071V196.919H715.361V190.993Z" fill="white" fill-opacity="0.5"/>
<path d="M715.361 210.455H706.071V216.381H715.361V210.455Z" fill="white" fill-opacity="0.5"/>
<path d="M727.339 54.792H718.049V60.7187H727.339V54.792Z" fill="white" fill-opacity="0.5"/>
<path d="M727.339 74.2432H718.049V80.1699H727.339V74.2432Z" fill="white" fill-opacity="0.5"/>
<path d="M727.339 83.9741H718.049V89.9008H727.339V83.9741Z" fill="white" fill-opacity="0.5"/>
<path d="M727.339 93.7051H718.049V99.6318H727.339V93.7051Z" fill="white" fill-opacity="0.5"/>
<path d="M727.339 103.436H718.049V109.363H727.339V103.436Z" fill="white" fill-opacity="0.5"/>
<path d="M727.339 113.167H718.049V119.094H727.339V113.167Z" fill="white" fill-opacity="0.5"/>
<path d="M727.339 122.887H718.049V128.813H727.339V122.887Z" fill="white" fill-opacity="0.5"/>
<path d="M727.339 132.618H718.049V138.544H727.339V132.618Z" fill="white" fill-opacity="0.5"/>
<path d="M727.339 142.349H718.049V148.276H727.339V142.349Z" fill="white" fill-opacity="0.5"/>
<path d="M727.339 152.08H718.049V158.007H727.339V152.08Z" fill="white" fill-opacity="0.5"/>
<path d="M727.339 161.811H718.049V167.738H727.339V161.811Z" fill="white" fill-opacity="0.5"/>
<path d="M727.339 171.531H718.049V177.457H727.339V171.531Z" fill="white" fill-opacity="0.5"/>
<path d="M727.339 181.262H718.049V187.188H727.339V181.262Z" fill="white" fill-opacity="0.5"/>
<path d="M727.339 200.724H718.049V206.65H727.339V200.724Z" fill="white" fill-opacity="0.5"/>
<path d="M727.339 210.455H718.049V216.381H727.339V210.455Z" fill="white" fill-opacity="0.5"/>
<path d="M692.75 310.565H683.459V316.492H692.75V310.565Z" fill="white" fill-opacity="0.5"/>
<path d="M692.75 320.296H683.459V326.223H692.75V320.296Z" fill="white" fill-opacity="0.5"/>
<path d="M692.75 330.027H683.459V335.954H692.75V330.027Z" fill="white" fill-opacity="0.5"/>
<path d="M692.75 339.758H683.459V345.685H692.75V339.758Z" fill="white" fill-opacity="0.5"/>
<path d="M692.75 349.479H683.459V355.405H692.75V349.479Z" fill="white" fill-opacity="0.5"/>
<path d="M704.727 310.565H695.437V316.492H704.727V310.565Z" fill="white" fill-opacity="0.5"/>
<path d="M704.727 330.027H695.437V335.954H704.727V330.027Z" fill="white" fill-opacity="0.5"/>
<path d="M704.727 339.758H695.437V345.685H704.727V339.758Z" fill="white" fill-opacity="0.5"/>
<path d="M704.727 349.479H695.437V355.405H704.727V349.479Z" fill="white" fill-opacity="0.5"/>
<path d="M716.705 310.565H707.414V316.492H716.705V310.565Z" fill="white" fill-opacity="0.5"/>
<path d="M716.705 320.296H707.414V326.223H716.705V320.296Z" fill="white" fill-opacity="0.5"/>
<path d="M716.705 330.027H707.414V335.954H716.705V330.027Z" fill="white" fill-opacity="0.5"/>
<path d="M716.705 339.758H707.414V345.685H716.705V339.758Z" fill="white" fill-opacity="0.5"/>
<path d="M716.705 349.479H707.414V355.405H716.705V349.479Z" fill="white" fill-opacity="0.5"/>
<path d="M728.683 310.565H719.392V316.492H728.683V310.565Z" fill="white" fill-opacity="0.5"/>
<path d="M728.683 320.296H719.392V326.223H728.683V320.296Z" fill="white" fill-opacity="0.5"/>
<path d="M728.683 349.479H719.392V355.405H728.683V349.479Z" fill="white" fill-opacity="0.5"/>
<path d="M740.66 310.565H731.369V316.492H740.66V310.565Z" fill="white" fill-opacity="0.5"/>
<path d="M740.66 320.296H731.369V326.223H740.66V320.296Z" fill="white" fill-opacity="0.5"/>
<path d="M740.66 330.027H731.369V335.954H740.66V330.027Z" fill="white" fill-opacity="0.5"/>
<path d="M740.66 339.758H731.369V345.685H740.66V339.758Z" fill="white" fill-opacity="0.5"/>
<path d="M740.66 349.479H731.369V355.405H740.66V349.479Z" fill="white" fill-opacity="0.5"/>
<path d="M88.0316 323.561H31.0833V358.362H88.0316V323.561Z" fill="black" stroke="white" stroke-opacity="0.3" stroke-miterlimit="10"/>
<path d="M59.4074 300.812L76.6907 312.642L93.9741 324.473H59.4074H24.8407L42.124 312.642L59.4074 300.812Z" fill="black" stroke="white" stroke-opacity="0.3" stroke-miterlimit="10"/>
<path d="M79.6365 337.534V334.565H68.088V337.534H79.6365Z" fill="black" stroke="white" stroke-opacity="0.3" stroke-miterlimit="10"/>
<path d="M79.6484 342.569V339.6H68.0998V342.569H79.6484Z" fill="black" stroke="white" stroke-opacity="0.3" stroke-miterlimit="10"/>
<path d="M79.6371 347.604V344.635H68.0885V347.604H79.6371Z" fill="black" stroke="white" stroke-opacity="0.3" stroke-miterlimit="10"/>
<path d="M64.8485 337.546V334.577H53.3V337.546H64.8485Z" fill="black" stroke="white" stroke-opacity="0.3" stroke-miterlimit="10"/>
<path d="M64.8485 342.569V339.6H53.3V342.569H64.8485Z" fill="black" stroke="white" stroke-opacity="0.3" stroke-miterlimit="10"/>
<path d="M64.8485 347.604V344.635H53.2999V347.604H64.8485Z" fill="black" stroke="white" stroke-opacity="0.3" stroke-miterlimit="10"/>
<path d="M50.7149 337.546V334.577H39.1664V337.546H50.7149Z" fill="black" stroke="white" stroke-opacity="0.3" stroke-miterlimit="10"/>
<path d="M50.7263 342.581V339.612H39.1777V342.581H50.7263Z" fill="black" stroke="white" stroke-opacity="0.3" stroke-miterlimit="10"/>
<path d="M50.7149 347.604V344.635H39.1663V347.604H50.7149Z" fill="black" stroke="white" stroke-opacity="0.3" stroke-miterlimit="10"/>
<path d="M827.305 314.069H751.374V358.362H827.305V314.069Z" fill="black" stroke="white" stroke-opacity="0.3" stroke-miterlimit="10"/>
<path d="M789.405 283.607L812.446 299.378L835.498 315.149H789.405H743.313L766.365 299.378L789.405 283.607Z" fill="black" stroke="white" stroke-opacity="0.3" stroke-miterlimit="10"/>
<path d="M816.375 332.579V328.616H800.976V332.579H816.375Z" fill="black" stroke="white" stroke-opacity="0.3" stroke-miterlimit="10"/>
<path d="M816.375 339.284V335.322H800.976V339.284H816.375Z" fill="black" stroke="white" stroke-opacity="0.3" stroke-miterlimit="10"/>
<path d="M816.375 345.99V342.027H800.976V345.99H816.375Z" fill="black" stroke="white" stroke-opacity="0.3" stroke-miterlimit="10"/>
<path d="M796.653 332.578V328.616H781.255V332.578H796.653Z" fill="black" stroke="white" stroke-opacity="0.3" stroke-miterlimit="10"/>
<path d="M796.653 339.284V335.322H781.255V339.284H796.653Z" fill="black" stroke="white" stroke-opacity="0.3" stroke-miterlimit="10"/>
<path d="M796.653 345.99V342.027H781.255V345.99H796.653Z" fill="black" stroke="white" stroke-opacity="0.3" stroke-miterlimit="10"/>
<path d="M777.812 332.59V328.628H762.414V332.59H777.812Z" fill="black" stroke="white" stroke-opacity="0.3" stroke-miterlimit="10"/>
<path d="M777.812 339.295V335.333H762.414V339.295H777.812Z" fill="black" stroke="white" stroke-opacity="0.3" stroke-miterlimit="10"/>
<path d="M777.823 346.001V342.039H762.425V346.001H777.823Z" fill="black" stroke="white" stroke-opacity="0.3" stroke-miterlimit="10"/>
<path d="M372.777 109.047V165.356" stroke="white" stroke-opacity="0.3" stroke-miterlimit="10"/>
<path d="M381.187 133.239V163.945" stroke="white" stroke-opacity="0.3" stroke-miterlimit="10"/>
<path d="M340.852 162.06V310.249" stroke="white" stroke-opacity="0.3" stroke-miterlimit="10"/>
<path d="M340.163 162.85H349.567" stroke="white" stroke-opacity="0.3" stroke-miterlimit="10"/>
<path d="M340.163 166.801H349.567" stroke="white" stroke-opacity="0.3" stroke-miterlimit="10"/>
<path d="M340.163 170.763H349.567" stroke="white" stroke-opacity="0.3" stroke-miterlimit="10"/>
<path d="M340.163 174.726H349.567" stroke="white" stroke-opacity="0.3" stroke-miterlimit="10"/>
<path d="M340.163 178.677H349.567" stroke="white" stroke-opacity="0.3" stroke-miterlimit="10"/>
<path d="M340.163 182.639H349.567" stroke="white" stroke-opacity="0.3" stroke-miterlimit="10"/>
<path d="M340.163 186.602H349.567" stroke="white" stroke-opacity="0.3" stroke-miterlimit="10"/>
<path d="M340.163 190.553H349.567" stroke="white" stroke-opacity="0.3" stroke-miterlimit="10"/>
<path d="M340.163 194.515H349.567" stroke="white" stroke-opacity="0.3" stroke-miterlimit="10"/>
<path d="M340.163 198.466H349.567" stroke="white" stroke-opacity="0.3" stroke-miterlimit="10"/>
<path d="M340.163 202.429H349.567" stroke="white" stroke-opacity="0.3" stroke-miterlimit="10"/>
<path d="M340.163 206.391H349.567" stroke="white" stroke-opacity="0.3" stroke-miterlimit="10"/>
<path d="M340.163 210.342H349.567" stroke="white" stroke-opacity="0.3" stroke-miterlimit="10"/>
<path d="M340.163 214.305H349.567" stroke="white" stroke-opacity="0.3" stroke-miterlimit="10"/>
<path d="M340.163 218.267H349.567" stroke="white" stroke-opacity="0.3" stroke-miterlimit="10"/>
<path d="M340.163 222.218H349.567" stroke="white" stroke-opacity="0.3" stroke-miterlimit="10"/>
<path d="M340.163 226.181H349.567" stroke="white" stroke-opacity="0.3" stroke-miterlimit="10"/>
<path d="M340.163 230.132H349.567" stroke="white" stroke-opacity="0.3" stroke-miterlimit="10"/>
<path d="M340.163 234.094H349.567" stroke="white" stroke-opacity="0.3" stroke-miterlimit="10"/>
<path d="M340.163 238.057H349.567" stroke="white" stroke-opacity="0.3" stroke-miterlimit="10"/>
<path d="M340.163 242.008H349.567" stroke="white" stroke-opacity="0.3" stroke-miterlimit="10"/>
<path d="M340.163 245.97H349.567" stroke="white" stroke-opacity="0.3" stroke-miterlimit="10"/>
<path d="M340.163 249.933H349.567" stroke="white" stroke-opacity="0.3" stroke-miterlimit="10"/>
<path d="M340.163 253.884H349.567" stroke="white" stroke-opacity="0.3" stroke-miterlimit="10"/>
<path d="M340.163 257.846H349.567" stroke="white" stroke-opacity="0.3" stroke-miterlimit="10"/>
<path d="M340.163 261.797H349.567" stroke="white" stroke-opacity="0.3" stroke-miterlimit="10"/>
<path d="M340.163 265.759H349.567" stroke="white" stroke-opacity="0.3" stroke-miterlimit="10"/>
<path d="M340.163 269.722H349.567" stroke="white" stroke-opacity="0.3" stroke-miterlimit="10"/>
<path d="M340.163 273.673H349.567" stroke="white" stroke-opacity="0.3" stroke-miterlimit="10"/>
<path d="M340.163 277.635H349.567" stroke="white" stroke-opacity="0.3" stroke-miterlimit="10"/>
<path d="M340.163 281.598H349.567" stroke="white" stroke-opacity="0.3" stroke-miterlimit="10"/>
<path d="M340.163 285.549H349.567" stroke="white" stroke-opacity="0.3" stroke-miterlimit="10"/>
<path d="M340.163 289.511H349.567" stroke="white" stroke-opacity="0.3" stroke-miterlimit="10"/>
<path d="M340.163 293.462H349.567" stroke="white" stroke-opacity="0.3" stroke-miterlimit="10"/>
<path d="M340.163 297.425H349.567" stroke="white" stroke-opacity="0.3" stroke-miterlimit="10"/>
<path d="M340.163 301.387H349.567" stroke="white" stroke-opacity="0.3" stroke-miterlimit="10"/>
<path d="M340.163 305.338H349.567" stroke="white" stroke-opacity="0.3" stroke-miterlimit="10"/>
<path d="M340.163 309.301H349.567" stroke="white" stroke-opacity="0.3" stroke-miterlimit="10"/>
<path d="M396.484 163.188H349.07V252.247H396.484V163.188Z" fill="black" stroke="white" stroke-opacity="0.3" stroke-miterlimit="10"/>
<path d="M364.874 212.442H333.265V257.53H364.874V212.442Z" fill="black" stroke="white" stroke-opacity="0.3" stroke-miterlimit="10"/>
<path d="M396.483 240.709H333.265V359.774H396.483V240.709Z" fill="black" stroke="white" stroke-opacity="0.3" stroke-miterlimit="10"/>
<path d="M349.07 218.967H339.475V234.975H349.07V218.967Z" fill="black" stroke="white" stroke-opacity="0.3" stroke-miterlimit="10"/>
<path d="M389.146 171.52H367.697V181.025H389.146V171.52Z" fill="black" stroke="white" stroke-opacity="0.3" stroke-miterlimit="10"/>
<path d="M389.146 185.642H367.697V195.147H389.146V185.642Z" fill="black" stroke="white" stroke-opacity="0.3" stroke-miterlimit="10"/>
<path d="M389.146 199.053H367.697V208.558H389.146V199.053Z" fill="black" stroke="white" stroke-opacity="0.3" stroke-miterlimit="10"/>
<path d="M350.256 248.07H339.475V253.139H350.256V248.07Z" fill="white" fill-opacity="0.5"/>
<path d="M350.256 256.412H339.475V261.481H350.256V256.412Z" fill="white" fill-opacity="0.5"/>
<path d="M364.163 248.07H353.382V253.139H364.163V248.07Z" fill="white" fill-opacity="0.5"/>
<path d="M364.163 256.412H353.382V261.481H364.163V256.412Z" fill="white" fill-opacity="0.5"/>
<path d="M378.059 248.07H367.278V253.139H378.059V248.07Z" fill="white" fill-opacity="0.5"/>
<path d="M378.059 256.412H367.278V261.481H378.059V256.412Z" fill="white" fill-opacity="0.5"/>
<path d="M391.968 248.07H381.187V253.139H391.968V248.07Z" fill="white" fill-opacity="0.5"/>
<path d="M391.968 256.412H381.187V261.481H391.968V256.412Z" fill="white" fill-opacity="0.5"/>
<path d="M350.256 264.743H339.475V269.812H350.256V264.743Z" fill="white" fill-opacity="0.5"/>
<path d="M350.256 273.075H339.475V278.144H350.256V273.075Z" fill="white" fill-opacity="0.5"/>
<path d="M364.163 264.743H353.382V269.812H364.163V264.743Z" fill="white" fill-opacity="0.5"/>
<path d="M364.163 273.075H353.382V278.143H364.163V273.075Z" fill="white" fill-opacity="0.5"/>
<path d="M378.059 264.743H367.278V269.812H378.059V264.743Z" fill="white" fill-opacity="0.5"/>
<path d="M378.059 273.075H367.278V278.144H378.059V273.075Z" fill="white" fill-opacity="0.5"/>
<path d="M391.968 264.743H381.187V269.812H391.968V264.743Z" fill="white" fill-opacity="0.5"/>
<path d="M391.968 273.075H381.187V278.143H391.968V273.075Z" fill="white" fill-opacity="0.5"/>
<path d="M350.256 281.406H339.475V286.475H350.256V281.406Z" fill="white" fill-opacity="0.5"/>
<path d="M350.256 289.737H339.475V294.806H350.256V289.737Z" fill="white" fill-opacity="0.5"/>
<path d="M364.163 281.406H353.382V286.475H364.163V281.406Z" fill="white" fill-opacity="0.5"/>
<path d="M364.163 289.737H353.382V294.806H364.163V289.737Z" fill="white" fill-opacity="0.5"/>
<path d="M378.059 281.406H367.278V286.475H378.059V281.406Z" fill="white" fill-opacity="0.5"/>
<path d="M378.059 289.737H367.278V294.806H378.059V289.737Z" fill="white" fill-opacity="0.5"/>
<path d="M391.968 281.406H381.187V286.475H391.968V281.406Z" fill="white" fill-opacity="0.5"/>
<path d="M391.968 289.737H381.187V294.806H391.968V289.737Z" fill="white" fill-opacity="0.5"/>
<path d="M350.256 298.068H339.475V303.137H350.256V298.068Z" fill="white" fill-opacity="0.5"/>
<path d="M350.256 306.399H339.475V311.468H350.256V306.399Z" fill="white" fill-opacity="0.5"/>
<path d="M364.163 298.068H353.382V303.137H364.163V298.068Z" fill="white" fill-opacity="0.5"/>
<path d="M364.163 306.399H353.382V311.468H364.163V306.399Z" fill="white" fill-opacity="0.5"/>
<path d="M378.059 298.068H367.278V303.137H378.059V298.068Z" fill="white" fill-opacity="0.5"/>
<path d="M378.059 306.399H367.278V311.468H378.059V306.399Z" fill="white" fill-opacity="0.5"/>
<path d="M391.968 298.068H381.187V303.137H391.968V298.068Z" fill="white" fill-opacity="0.5"/>
<path d="M391.968 306.399H381.187V311.468H391.968V306.399Z" fill="white" fill-opacity="0.5"/>
<path d="M355.493 160.208H354.195V162.748H355.493V160.208Z" fill="black" stroke="white" stroke-opacity="0.3" stroke-miterlimit="10"/>
<path d="M360.133 146.943C360.861 147.67 361.438 148.532 361.831 149.482C362.225 150.431 362.428 151.449 362.429 152.477C362.429 153.504 362.227 154.522 361.834 155.472C361.442 156.422 360.866 157.285 360.139 158.012C359.413 158.739 358.55 159.316 357.601 159.71C356.651 160.104 355.634 160.307 354.606 160.307C353.578 160.308 352.56 160.106 351.61 159.713C350.661 159.32 349.797 158.744 349.07 158.018" fill="black"/>
<path d="M360.133 146.943C360.861 147.67 361.438 148.532 361.831 149.482C362.225 150.431 362.428 151.449 362.429 152.477C362.429 153.504 362.227 154.522 361.834 155.472C361.442 156.422 360.866 157.285 360.139 158.012C359.413 158.739 358.55 159.316 357.601 159.71C356.651 160.104 355.634 160.307 354.606 160.307C353.578 160.308 352.56 160.106 351.61 159.713C350.661 159.32 349.797 158.744 349.07 158.018" stroke="white" stroke-opacity="0.3" stroke-miterlimit="10"/>
<path d="M523.529 255.803H509.835V293.135H523.529V255.803Z" fill="black" stroke="white" stroke-opacity="0.3" stroke-miterlimit="10"/>
<path d="M582.276 299.852H507.013V360.564H582.276V299.852Z" fill="black" stroke="white" stroke-opacity="0.3" stroke-miterlimit="10"/>
<path d="M544.651 255.803L567.691 278.313L590.732 300.834H544.651H498.558L521.599 278.313L544.651 255.803Z" fill="black" stroke="white" stroke-opacity="0.3" stroke-miterlimit="10"/>
<path d="M571.416 309.526H565.874V340.277H571.416V309.526Z" fill="black" stroke="white" stroke-opacity="0.3" stroke-miterlimit="10"/>
<path d="M556.696 309.526H514.114V340.277H556.696V309.526Z" fill="black" stroke="white" stroke-opacity="0.3" stroke-miterlimit="10"/>
<path d="M347.162 337.026H333.186V352.131H347.162V337.026Z" fill="black" stroke="white" stroke-opacity="0.3" stroke-miterlimit="10"/>
<path d="M348.517 352.035H331.644V358.362H348.517V352.035Z" fill="black" stroke="white" stroke-opacity="0.3" stroke-miterlimit="10"/>
<path d="M340.162 346.34C341.135 346.34 341.923 345.551 341.923 344.578C341.923 343.606 341.135 342.817 340.162 342.817C339.19 342.817 338.401 343.606 338.401 344.578C338.401 345.551 339.19 346.34 340.162 346.34Z" fill="black" stroke="white" stroke-opacity="0.3" stroke-miterlimit="10"/>
<path d="M340.162 332.578C341.135 332.578 341.923 331.79 341.923 330.817C341.923 329.845 341.135 329.056 340.162 329.056C339.19 329.056 338.401 329.845 338.401 330.817C338.401 331.79 339.19 332.578 340.162 332.578Z" fill="black" stroke="white" stroke-opacity="0.3" stroke-miterlimit="10"/>
<path d="M349.408 340.063C349.452 338.823 349.245 337.586 348.8 336.427C348.355 335.268 347.682 334.211 346.819 333.318C345.957 332.425 344.924 331.715 343.781 331.23C342.638 330.745 341.41 330.495 340.168 330.495C338.927 330.495 337.698 330.745 336.556 331.23C335.413 331.715 334.38 332.425 333.518 333.318C332.655 334.211 331.982 335.268 331.537 336.427C331.092 337.586 330.885 338.823 330.928 340.063H349.408Z" fill="black" stroke="white" stroke-opacity="0.3" stroke-miterlimit="10"/>
<path d="M193.768 338.799H179.792V353.903H193.768V338.799Z" fill="black" stroke="white" stroke-opacity="0.3" stroke-miterlimit="10"/>
<path d="M195.601 354.144H178.727V358.362H195.601V354.144Z" fill="black" stroke="white" stroke-opacity="0.3" stroke-miterlimit="10"/>
<path d="M186.781 348.112C187.753 348.112 188.542 347.324 188.542 346.351C188.542 345.378 187.753 344.59 186.781 344.59C185.808 344.59 185.02 345.378 185.02 346.351C185.02 347.324 185.808 348.112 186.781 348.112Z" fill="black" stroke="white" stroke-opacity="0.3" stroke-miterlimit="10"/>
<path d="M186.781 334.351C187.753 334.351 188.542 333.562 188.542 332.59C188.542 331.617 187.753 330.829 186.781 330.829C185.808 330.829 185.02 331.617 185.02 332.59C185.02 333.562 185.808 334.351 186.781 334.351Z" fill="black" stroke="white" stroke-opacity="0.3" stroke-miterlimit="10"/>
<path d="M196.026 341.835C196.026 339.383 195.052 337.032 193.318 335.298C191.584 333.564 189.233 332.59 186.781 332.59C184.328 332.59 181.977 333.564 180.243 335.298C178.509 337.032 177.535 339.383 177.535 341.835H196.026Z" fill="black" stroke="white" stroke-opacity="0.3" stroke-miterlimit="10"/>
<path d="M158.69 321.451H155.526V358.362H158.69V321.451Z" fill="black" stroke="white" stroke-opacity="0.3" stroke-miterlimit="10"/>
<path d="M181.914 299.784C181.92 298.36 181.576 296.955 180.914 295.695C180.251 294.434 179.29 293.354 178.113 292.551C176.937 291.748 175.582 291.245 174.166 291.087C172.75 290.929 171.318 291.121 169.993 291.645C166.697 288.738 162.455 287.133 158.061 287.129C156.459 287.135 154.865 287.351 153.319 287.773C152.69 287.103 151.874 286.639 150.977 286.441C150.08 286.243 149.144 286.319 148.291 286.66C147.438 287.001 146.708 287.591 146.195 288.354C145.682 289.116 145.411 290.015 145.417 290.933C145.422 291.316 145.479 291.695 145.586 292.062C145.117 292.5 144.672 292.964 144.254 293.451C143.479 292.911 142.558 292.619 141.613 292.616C140.87 292.601 140.136 292.771 139.474 293.108C138.813 293.446 138.244 293.941 137.82 294.551C137.396 295.16 137.129 295.865 137.042 296.603C136.955 297.34 137.052 298.088 137.323 298.779C135.882 299.535 134.722 300.732 134.01 302.195C133.299 303.658 133.075 305.31 133.37 306.91C133.665 308.509 134.464 309.973 135.651 311.085C136.838 312.198 138.349 312.902 139.964 313.094C139.915 313.347 139.889 313.604 139.885 313.861C139.885 315.077 140.368 316.243 141.228 317.102C142.087 317.962 143.253 318.445 144.469 318.445C144.772 318.444 145.074 318.413 145.372 318.354C148.436 321.345 152.459 323.155 156.73 323.465C161 323.775 165.242 322.564 168.706 320.048C169.639 320.82 170.84 321.19 172.046 321.077C173.251 320.964 174.363 320.376 175.135 319.444C175.908 318.511 176.278 317.31 176.165 316.104C176.051 314.898 175.464 313.787 174.531 313.015C174.531 312.868 174.667 312.732 174.723 312.586C175.216 312.762 175.735 312.854 176.258 312.857C177.531 312.857 178.751 312.351 179.651 311.451C180.551 310.552 181.056 309.331 181.056 308.059C181.051 306.997 180.689 305.967 180.029 305.135C181.233 303.609 181.896 301.727 181.914 299.784Z" fill="black" stroke="white" stroke-opacity="0.3" stroke-miterlimit="10"/>
<path d="M818.181 321.764H814.929V357.042H818.181V321.764Z" fill="black" stroke="white" stroke-opacity="0.3" stroke-miterlimit="10"/>
<path d="M828.669 305.733C828.593 304.032 827.978 302.398 826.912 301.068C825.847 299.739 824.387 298.782 822.743 298.336C821.099 297.89 819.356 297.978 817.765 298.587C816.174 299.197 814.817 300.296 813.892 301.726C813.01 300.895 811.904 300.341 810.71 300.131C809.517 299.922 808.288 300.066 807.176 300.546C806.063 301.026 805.116 301.821 804.45 302.833C803.783 303.845 803.428 305.03 803.427 306.241C803.43 306.689 803.479 307.136 803.574 307.574C801.171 307.978 799.009 309.276 797.522 311.207C796.035 313.138 795.333 315.559 795.556 317.986C795.778 320.412 796.91 322.665 798.723 324.293C800.537 325.921 802.898 326.804 805.335 326.765H805.865C806.936 328.406 808.409 329.747 810.144 330.66C811.878 331.573 813.817 332.027 815.777 331.98C817.399 332.002 819.009 331.69 820.506 331.065C822.003 330.44 823.356 329.514 824.481 328.345C824.964 328.408 825.45 328.442 825.937 328.447C828.748 328.449 831.463 327.42 833.567 325.556C835.671 323.692 837.018 321.121 837.355 318.33C837.692 315.539 836.993 312.722 835.393 310.411C833.792 308.1 831.4 306.456 828.669 305.79V305.733Z" fill="black" stroke="white" stroke-opacity="0.3" stroke-miterlimit="10"/>
<path d="M833.297 335.864H831.311V357.414H833.297V335.864Z" fill="black" stroke="white" stroke-opacity="0.3" stroke-miterlimit="10"/>
<path d="M839.698 326.076C839.66 325.031 839.288 324.026 838.638 323.208C837.988 322.389 837.093 321.8 836.084 321.526C835.075 321.252 834.005 321.308 833.03 321.686C832.056 322.064 831.227 322.744 830.667 323.626C830.128 323.117 829.452 322.776 828.722 322.646C827.992 322.517 827.24 322.604 826.559 322.897C825.878 323.19 825.298 323.676 824.891 324.295C824.483 324.914 824.266 325.64 824.266 326.381C824.267 326.654 824.297 326.927 824.356 327.194C822.912 327.465 821.621 328.265 820.735 329.438C819.849 330.611 819.433 332.072 819.567 333.535C819.701 334.998 820.376 336.359 821.46 337.351C822.544 338.344 823.959 338.896 825.428 338.9H825.756C826.41 339.902 827.31 340.72 828.368 341.277C829.427 341.834 830.611 342.112 831.807 342.084C832.802 342.093 833.789 341.897 834.706 341.509C835.622 341.12 836.449 340.548 837.135 339.826C837.426 339.872 837.721 339.894 838.016 339.894C839.731 339.892 841.387 339.263 842.67 338.124C843.953 336.986 844.775 335.417 844.981 333.714C845.186 332.011 844.761 330.291 843.786 328.88C842.81 327.469 841.352 326.463 839.686 326.054L839.698 326.076Z" fill="black" stroke="white" stroke-opacity="0.3" stroke-miterlimit="10"/>
<path d="M300.945 322.496H297.694V357.774H300.945V322.496Z" fill="black" stroke="white" stroke-opacity="0.3" stroke-miterlimit="10"/>
<path d="M311.467 304.356C311.39 302.655 310.775 301.021 309.71 299.691C308.645 298.362 307.185 297.405 305.541 296.959C303.897 296.513 302.153 296.601 300.562 297.21C298.971 297.82 297.615 298.919 296.689 300.349C295.807 299.518 294.701 298.964 293.508 298.754C292.315 298.545 291.086 298.689 289.974 299.169C288.861 299.649 287.913 300.444 287.247 301.456C286.581 302.468 286.226 303.653 286.225 304.864C286.227 305.312 286.277 305.759 286.371 306.197C283.968 306.601 281.807 307.899 280.32 309.83C278.833 311.761 278.131 314.182 278.353 316.609C278.576 319.035 279.707 321.289 281.521 322.916C283.334 324.544 285.696 325.427 288.132 325.388C288.313 325.388 288.482 325.388 288.663 325.388C289.734 327.03 291.206 328.37 292.941 329.283C294.676 330.196 296.615 330.65 298.575 330.603C300.197 330.625 301.806 330.313 303.303 329.688C304.8 329.063 306.153 328.137 307.278 326.968C307.761 327.037 308.247 327.07 308.735 327.07C311.59 327.136 314.367 326.136 316.526 324.266C318.684 322.396 320.069 319.789 320.41 316.953C320.751 314.118 320.024 311.257 318.37 308.928C316.717 306.599 314.256 304.969 311.467 304.356Z" fill="black" stroke="white" stroke-opacity="0.3" stroke-miterlimit="10"/>
<path d="M316.061 336.607H314.074V358.158H316.061V336.607Z" fill="black" stroke="white" stroke-opacity="0.3" stroke-miterlimit="10"/>
<path d="M322.462 324.699C322.424 323.654 322.053 322.649 321.403 321.831C320.752 321.012 319.857 320.423 318.848 320.149C317.839 319.875 316.769 319.931 315.795 320.309C314.82 320.687 313.992 321.367 313.431 322.25C312.892 321.74 312.217 321.399 311.487 321.269C310.757 321.14 310.005 321.227 309.324 321.52C308.643 321.813 308.063 322.299 307.655 322.918C307.247 323.538 307.03 324.263 307.03 325.004C307.031 325.277 307.061 325.55 307.12 325.817C305.657 326.074 304.344 326.874 303.444 328.057C302.545 329.24 302.124 330.718 302.267 332.198C302.409 333.677 303.104 335.048 304.213 336.037C305.322 337.027 306.763 337.561 308.249 337.535H308.565C309.221 338.538 310.122 339.357 311.183 339.914C312.244 340.471 313.429 340.748 314.627 340.718C315.621 340.728 316.607 340.532 317.521 340.144C318.436 339.755 319.261 339.182 319.945 338.46C320.237 338.496 320.531 338.515 320.825 338.517C322.541 338.515 324.196 337.886 325.479 336.747C326.762 335.609 327.584 334.04 327.79 332.337C327.996 330.634 327.571 328.914 326.595 327.503C325.62 326.092 324.162 325.086 322.496 324.677L322.462 324.699Z" fill="black" stroke="white" stroke-opacity="0.3" stroke-miterlimit="10"/>
<path d="M496.379 324.383H493.128V359.661H496.379V324.383Z" fill="black" stroke="white" stroke-opacity="0.3" stroke-miterlimit="10"/>
<path d="M506.866 308.353C506.79 306.651 506.175 305.017 505.11 303.687C504.045 302.358 502.585 301.401 500.941 300.955C499.296 300.509 497.553 300.597 495.962 301.206C494.371 301.816 493.015 302.915 492.089 304.345C491.209 303.509 490.102 302.95 488.907 302.738C487.712 302.525 486.481 302.668 485.366 303.149C484.252 303.63 483.303 304.428 482.638 305.443C481.973 306.458 481.62 307.647 481.624 308.861C481.627 309.312 481.676 309.762 481.771 310.204C479.368 310.609 477.207 311.906 475.72 313.837C474.233 315.768 473.53 318.189 473.753 320.616C473.976 323.043 475.107 325.296 476.921 326.924C478.734 328.552 481.096 329.434 483.532 329.395H484.063C485.137 331.033 486.61 332.371 488.344 333.281C490.079 334.192 492.016 334.646 493.974 334.599C495.596 334.623 497.205 334.313 498.702 333.69C500.199 333.067 501.552 332.143 502.678 330.976C503.161 331.038 503.647 331.072 504.134 331.077C506.946 331.079 509.66 330.051 511.764 328.187C513.868 326.322 515.216 323.752 515.552 320.961C515.889 318.17 515.191 315.352 513.59 313.041C511.99 310.731 509.597 309.086 506.866 308.42V308.353Z" fill="black" stroke="white" stroke-opacity="0.3" stroke-miterlimit="10"/>
<path d="M511.495 338.483H509.508V360.034H511.495V338.483Z" fill="black" stroke="white" stroke-opacity="0.3" stroke-miterlimit="10"/>
<path d="M517.896 328.684C517.855 327.64 517.483 326.636 516.832 325.819C516.181 325.002 515.285 324.415 514.277 324.143C513.268 323.87 512.199 323.927 511.226 324.306C510.252 324.684 509.425 325.364 508.864 326.245C508.326 325.736 507.65 325.395 506.92 325.265C506.19 325.135 505.438 325.223 504.757 325.516C504.076 325.809 503.496 326.295 503.089 326.914C502.681 327.533 502.464 328.258 502.464 329C502.465 329.273 502.495 329.546 502.554 329.813C501.105 330.085 499.81 330.889 498.924 332.068C498.038 333.247 497.625 334.714 497.767 336.182C497.909 337.65 498.594 339.011 499.689 339.999C500.784 340.987 502.208 341.529 503.683 341.519H504.01C504.667 342.521 505.569 343.339 506.629 343.896C507.69 344.453 508.875 344.73 510.072 344.703C511.066 344.712 512.051 344.516 512.966 344.127C513.881 343.739 514.706 343.166 515.39 342.445C515.681 342.49 515.975 342.512 516.27 342.513C517.994 342.523 519.661 341.898 520.954 340.759C522.247 339.619 523.076 338.043 523.282 336.332C523.488 334.621 523.058 332.893 522.073 331.479C521.088 330.064 519.617 329.061 517.941 328.661L517.896 328.684Z" fill="black" stroke="white" stroke-opacity="0.3" stroke-miterlimit="10"/>
<path d="M836.807 357.573H17.4822V367.853H836.807V357.573Z" fill="black"/>
<path d="M669.115 331.997L669.115 358.362" stroke="white" stroke-opacity="0.3" stroke-miterlimit="10"/>
<path d="M669.393 333.166C673.147 333.166 676.189 330.123 676.189 326.37C676.189 322.616 673.147 319.574 669.393 319.574C665.64 319.574 662.597 322.616 662.597 326.37C662.597 330.123 665.64 333.166 669.393 333.166Z" fill="black" stroke="white" stroke-opacity="0.3" stroke-miterlimit="10"/>
<path d="M237.547 333.549V357.775" stroke="white" stroke-opacity="0.3" stroke-miterlimit="10"/>
<path d="M237.546 334.385C241.3 334.385 244.342 331.342 244.342 327.589C244.342 323.836 241.3 320.793 237.546 320.793C233.793 320.793 230.75 323.836 230.75 327.589C230.75 331.342 233.793 334.385 237.546 334.385Z" fill="black" stroke="white" stroke-opacity="0.3" stroke-miterlimit="10"/>
</svg>
